%TF.GenerationSoftware,KiCad,Pcbnew,8.0.0-rc3-3-g27911d9b5a*%
%TF.CreationDate,2025-03-15T22:51:05+01:00*%
%TF.ProjectId,MSPM0C1104S8YCJR,4d53504d-3043-4313-9130-34533859434a,rev?*%
%TF.SameCoordinates,Original*%
%TF.FileFunction,Copper,L2,Bot*%
%TF.FilePolarity,Positive*%
%FSLAX46Y46*%
G04 Gerber Fmt 4.6, Leading zero omitted, Abs format (unit mm)*
G04 Created by KiCad (PCBNEW 8.0.0-rc3-3-g27911d9b5a) date 2025-03-15 22:51:05*
%MOMM*%
%LPD*%
G01*
G04 APERTURE LIST*
%TA.AperFunction,ComponentPad*%
%ADD10R,2.400000X2.400000*%
%TD*%
%TA.AperFunction,ComponentPad*%
%ADD11C,2.400000*%
%TD*%
%TA.AperFunction,ComponentPad*%
%ADD12R,1.700000X1.700000*%
%TD*%
%TA.AperFunction,ComponentPad*%
%ADD13O,1.700000X1.700000*%
%TD*%
%TA.AperFunction,ViaPad*%
%ADD14C,0.600000*%
%TD*%
%TA.AperFunction,Conductor*%
%ADD15C,0.150000*%
%TD*%
%TA.AperFunction,Conductor*%
%ADD16C,0.400000*%
%TD*%
G04 APERTURE END LIST*
D10*
%TO.P,J2,1,Pin_1*%
%TO.N,Net-(J2-Pin_1)*%
X114800000Y-93250000D03*
D11*
%TO.P,J2,2,Pin_2*%
%TO.N,GND*%
X114800000Y-96750000D03*
%TD*%
D12*
%TO.P,J1,1,Pin_1*%
%TO.N,/PA24*%
X121435000Y-86995000D03*
D13*
%TO.P,J1,2,Pin_2*%
%TO.N,/I2C0_SDA*%
X121435000Y-84455000D03*
%TO.P,J1,3,Pin_3*%
%TO.N,/PA27*%
X123975000Y-86995000D03*
%TO.P,J1,4,Pin_4*%
%TO.N,/I2C0_SCL*%
X123975000Y-84455000D03*
%TO.P,J1,5,Pin_5*%
%TO.N,/SWCLK*%
X126515000Y-86995000D03*
%TO.P,J1,6,Pin_6*%
%TO.N,+3V3*%
X126515000Y-84455000D03*
%TO.P,J1,7,Pin_7*%
%TO.N,/SWDIO*%
X129055000Y-86995000D03*
%TO.P,J1,8,Pin_8*%
%TO.N,GND*%
X129055000Y-84455000D03*
%TD*%
D14*
%TO.N,GND*%
X132650000Y-93750000D03*
%TO.N,/I2C0_SDA*%
X133650000Y-92900000D03*
%TO.N,/I2C0_SCL*%
X131650000Y-94100000D03*
%TO.N,GND*%
X138500000Y-96050000D03*
%TO.N,+3V3*%
X133300000Y-95500000D03*
%TO.N,GND*%
X132900000Y-96550000D03*
X122500000Y-91700000D03*
X123500000Y-90850000D03*
X119960000Y-96470000D03*
X117350000Y-97860000D03*
X113490000Y-102820000D03*
X132630000Y-107260000D03*
X116580000Y-81050000D03*
X116150000Y-85570000D03*
X124980000Y-91920000D03*
X123290000Y-93720000D03*
X127700000Y-89760000D03*
X135970000Y-98010000D03*
X137530000Y-102080000D03*
X139050000Y-103260000D03*
X138670000Y-100860000D03*
X137300000Y-99720000D03*
X133170000Y-98040000D03*
X126960000Y-98750000D03*
X131490000Y-99670000D03*
X131980000Y-103850000D03*
X129980000Y-103860000D03*
X127850000Y-102420000D03*
X126550000Y-102990000D03*
X125430000Y-104040000D03*
X120370000Y-107380000D03*
X117180000Y-105920000D03*
X115840000Y-103230000D03*
X118960000Y-99680000D03*
X114530000Y-99970000D03*
X110780000Y-103540000D03*
X111020000Y-101010000D03*
X119370000Y-88270000D03*
X117960000Y-86700000D03*
X116580000Y-90290000D03*
X111150000Y-88760000D03*
X111460000Y-86550000D03*
X117310000Y-83030000D03*
X119680000Y-80890000D03*
X125060000Y-80940000D03*
X131260000Y-80970000D03*
X133790000Y-80970000D03*
X132890000Y-82770000D03*
X133860000Y-86400000D03*
X133860000Y-89440000D03*
X138370000Y-88380000D03*
X138880000Y-86600000D03*
X136000000Y-87060000D03*
X131850000Y-87080000D03*
X131950000Y-90420000D03*
X127030000Y-91800000D03*
X119550000Y-90270000D03*
X119850000Y-92940000D03*
X122930000Y-97270000D03*
X135280000Y-100340000D03*
X137650000Y-93510000D03*
X131590000Y-97110000D03*
X129020000Y-97180000D03*
X113240000Y-90080000D03*
X117150000Y-103000000D03*
%TO.N,+3V3*%
X120360000Y-98400000D03*
%TO.N,/PA24*%
X129800000Y-101500000D03*
%TO.N,+3V3*%
X125437500Y-100262500D03*
X129800000Y-91870000D03*
X130500000Y-94500000D03*
X118300000Y-88900000D03*
%TO.N,/SWCLK*%
X122700000Y-95500000D03*
%TO.N,/SWDIO*%
X121825000Y-96125000D03*
%TD*%
D15*
%TO.N,/I2C0_SDA*%
X134470000Y-92080000D02*
X133650000Y-92900000D01*
X134470000Y-86110000D02*
X134470000Y-92080000D01*
%TO.N,/I2C0_SCL*%
X131650000Y-92600000D02*
X131650000Y-94100000D01*
X133260000Y-90990000D02*
X131650000Y-92600000D01*
X130240000Y-83120000D02*
X133260000Y-86140000D01*
X125310000Y-83120000D02*
X130240000Y-83120000D01*
X133260000Y-86140000D02*
X133260000Y-90990000D01*
X123975000Y-84455000D02*
X125310000Y-83120000D01*
D16*
%TO.N,+3V3*%
X131500000Y-95500000D02*
X133300000Y-95500000D01*
X130500000Y-94500000D02*
X131500000Y-95500000D01*
X129800000Y-93800000D02*
X130500000Y-94500000D01*
X129800000Y-91870000D02*
X129800000Y-93800000D01*
D15*
%TO.N,/SWDIO*%
X126120000Y-85700000D02*
X127760000Y-85700000D01*
X127760000Y-85700000D02*
X129055000Y-86995000D01*
X125250000Y-86570000D02*
X126120000Y-85700000D01*
X121825000Y-91475000D02*
X125250000Y-88050000D01*
X125250000Y-88050000D02*
X125250000Y-86570000D01*
X121825000Y-96125000D02*
X121825000Y-91475000D01*
D16*
%TO.N,+3V3*%
X118300000Y-96340000D02*
X118300000Y-88900000D01*
X120360000Y-98400000D02*
X118300000Y-96340000D01*
D15*
%TO.N,/I2C0_SDA*%
X123830000Y-82060000D02*
X121435000Y-84455000D01*
X130420000Y-82060000D02*
X123830000Y-82060000D01*
X134470000Y-86110000D02*
X130420000Y-82060000D01*
D16*
%TO.N,+3V3*%
X125270000Y-85700000D02*
X126515000Y-84455000D01*
X118300000Y-87930000D02*
X120530000Y-85700000D01*
X118300000Y-88900000D02*
X118300000Y-87930000D01*
X120530000Y-85700000D02*
X125270000Y-85700000D01*
D15*
%TO.N,/PA24*%
X120800000Y-96900000D02*
X125400000Y-101500000D01*
X125400000Y-101500000D02*
X129800000Y-101500000D01*
X120800000Y-91000000D02*
X120800000Y-96900000D01*
X121435000Y-90365000D02*
X120800000Y-91000000D01*
X121435000Y-86995000D02*
X121435000Y-90365000D01*
D16*
%TO.N,+3V3*%
X128437500Y-100262500D02*
X130500000Y-98200000D01*
X125437500Y-100262500D02*
X128437500Y-100262500D01*
X130500000Y-98200000D02*
X130500000Y-94500000D01*
D15*
%TO.N,/SWCLK*%
X126515000Y-88685000D02*
X126515000Y-86995000D01*
X122700000Y-92500000D02*
X126515000Y-88685000D01*
X122700000Y-95500000D02*
X122700000Y-92500000D01*
%TD*%
%TA.AperFunction,Conductor*%
%TO.N,GND*%
G36*
X125651826Y-87599693D02*
G01*
X125656698Y-87605069D01*
X125768590Y-87741410D01*
X125928550Y-87872685D01*
X126111046Y-87970232D01*
X126186981Y-87993266D01*
X126230762Y-88029195D01*
X126239500Y-88064079D01*
X126239500Y-88540232D01*
X126217826Y-88592558D01*
X122543942Y-92266443D01*
X122466442Y-92343943D01*
X122424500Y-92445200D01*
X122424500Y-95041700D01*
X122402826Y-95094026D01*
X122390508Y-95103952D01*
X122368877Y-95117853D01*
X122368868Y-95117860D01*
X122274623Y-95226626D01*
X122241813Y-95298471D01*
X122200360Y-95337064D01*
X122143759Y-95335043D01*
X122105166Y-95293590D01*
X122100500Y-95267730D01*
X122100500Y-91619767D01*
X122122174Y-91567441D01*
X123469383Y-90220232D01*
X125483557Y-88206059D01*
X125496044Y-88175913D01*
X125525500Y-88104800D01*
X125525500Y-87652019D01*
X125547174Y-87599693D01*
X125599500Y-87578019D01*
X125651826Y-87599693D01*
G37*
%TD.AperFunction*%
%TA.AperFunction,Conductor*%
G36*
X137002065Y-80200615D02*
G01*
X137309309Y-80217870D01*
X137317543Y-80218799D01*
X137618855Y-80269993D01*
X137626923Y-80271834D01*
X137920633Y-80356451D01*
X137928447Y-80359185D01*
X138210817Y-80476147D01*
X138218293Y-80479747D01*
X138485784Y-80627584D01*
X138492808Y-80631997D01*
X138742086Y-80808869D01*
X138748554Y-80814028D01*
X138901670Y-80950862D01*
X138976446Y-81017686D01*
X138982313Y-81023553D01*
X139065033Y-81116116D01*
X139185969Y-81251443D01*
X139191132Y-81257915D01*
X139319554Y-81438909D01*
X139368000Y-81507188D01*
X139372415Y-81514215D01*
X139520252Y-81781706D01*
X139523852Y-81789182D01*
X139640810Y-82071543D01*
X139643551Y-82079376D01*
X139728162Y-82373065D01*
X139730008Y-82381156D01*
X139781199Y-82682450D01*
X139782129Y-82690696D01*
X139799384Y-82997934D01*
X139799500Y-83002083D01*
X139799500Y-106997916D01*
X139799384Y-107002065D01*
X139782129Y-107309303D01*
X139781199Y-107317549D01*
X139730008Y-107618843D01*
X139728162Y-107626934D01*
X139643551Y-107920623D01*
X139640810Y-107928456D01*
X139523852Y-108210817D01*
X139520252Y-108218293D01*
X139372415Y-108485784D01*
X139368000Y-108492811D01*
X139191138Y-108742076D01*
X139185963Y-108748564D01*
X138982313Y-108976446D01*
X138976446Y-108982313D01*
X138748564Y-109185963D01*
X138742076Y-109191138D01*
X138492811Y-109368000D01*
X138485784Y-109372415D01*
X138218293Y-109520252D01*
X138210817Y-109523852D01*
X137928456Y-109640810D01*
X137920623Y-109643551D01*
X137626934Y-109728162D01*
X137618843Y-109730008D01*
X137317549Y-109781199D01*
X137309303Y-109782129D01*
X137002066Y-109799384D01*
X136997917Y-109799500D01*
X113002083Y-109799500D01*
X112997934Y-109799384D01*
X112690696Y-109782129D01*
X112682450Y-109781199D01*
X112381156Y-109730008D01*
X112373065Y-109728162D01*
X112079376Y-109643551D01*
X112071543Y-109640810D01*
X111789182Y-109523852D01*
X111781706Y-109520252D01*
X111514215Y-109372415D01*
X111507188Y-109368000D01*
X111363715Y-109266201D01*
X111257915Y-109191132D01*
X111251443Y-109185969D01*
X111062260Y-109016904D01*
X111023553Y-108982313D01*
X111017686Y-108976446D01*
X110950862Y-108901670D01*
X110814028Y-108748554D01*
X110808869Y-108742086D01*
X110631997Y-108492808D01*
X110627584Y-108485784D01*
X110610565Y-108454991D01*
X110479747Y-108218293D01*
X110476147Y-108210817D01*
X110450347Y-108148531D01*
X110359185Y-107928447D01*
X110356451Y-107920633D01*
X110271834Y-107626923D01*
X110269993Y-107618855D01*
X110218799Y-107317543D01*
X110217870Y-107309303D01*
X110207574Y-107125963D01*
X111399500Y-107125963D01*
X111438909Y-107374782D01*
X111438912Y-107374795D01*
X111516756Y-107614373D01*
X111631129Y-107838845D01*
X111779203Y-108042651D01*
X111779207Y-108042656D01*
X111957344Y-108220793D01*
X111957347Y-108220795D01*
X111957348Y-108220796D01*
X112161154Y-108368870D01*
X112269345Y-108423995D01*
X112385621Y-108483241D01*
X112385623Y-108483241D01*
X112385626Y-108483243D01*
X112625204Y-108561087D01*
X112625210Y-108561088D01*
X112625215Y-108561090D01*
X112749626Y-108580795D01*
X112874036Y-108600500D01*
X112874038Y-108600500D01*
X113125964Y-108600500D01*
X113225491Y-108584736D01*
X113374785Y-108561090D01*
X113374792Y-108561087D01*
X113374795Y-108561087D01*
X113614373Y-108483243D01*
X113614373Y-108483242D01*
X113614379Y-108483241D01*
X113838845Y-108368870D01*
X114042656Y-108220793D01*
X114220793Y-108042656D01*
X114368870Y-107838845D01*
X114483241Y-107614379D01*
X114483243Y-107614373D01*
X114561087Y-107374795D01*
X114561087Y-107374792D01*
X114561090Y-107374785D01*
X114600500Y-107125963D01*
X135399500Y-107125963D01*
X135438909Y-107374782D01*
X135438912Y-107374795D01*
X135516756Y-107614373D01*
X135631129Y-107838845D01*
X135779203Y-108042651D01*
X135779207Y-108042656D01*
X135957344Y-108220793D01*
X135957347Y-108220795D01*
X135957348Y-108220796D01*
X136161154Y-108368870D01*
X136269345Y-108423995D01*
X136385621Y-108483241D01*
X136385623Y-108483241D01*
X136385626Y-108483243D01*
X136625204Y-108561087D01*
X136625210Y-108561088D01*
X136625215Y-108561090D01*
X136749626Y-108580795D01*
X136874036Y-108600500D01*
X136874038Y-108600500D01*
X137125964Y-108600500D01*
X137225491Y-108584736D01*
X137374785Y-108561090D01*
X137374792Y-108561087D01*
X137374795Y-108561087D01*
X137614373Y-108483243D01*
X137614373Y-108483242D01*
X137614379Y-108483241D01*
X137838845Y-108368870D01*
X138042656Y-108220793D01*
X138220793Y-108042656D01*
X138368870Y-107838845D01*
X138483241Y-107614379D01*
X138483243Y-107614373D01*
X138561087Y-107374795D01*
X138561087Y-107374792D01*
X138561090Y-107374785D01*
X138600500Y-107125962D01*
X138600500Y-106874038D01*
X138561090Y-106625215D01*
X138561088Y-106625210D01*
X138561087Y-106625204D01*
X138483243Y-106385626D01*
X138483241Y-106385623D01*
X138483241Y-106385621D01*
X138423995Y-106269345D01*
X138368870Y-106161154D01*
X138220796Y-105957348D01*
X138220795Y-105957347D01*
X138220793Y-105957344D01*
X138042656Y-105779207D01*
X138042653Y-105779204D01*
X138042651Y-105779203D01*
X137838845Y-105631129D01*
X137614373Y-105516756D01*
X137374795Y-105438912D01*
X137374782Y-105438909D01*
X137125964Y-105399500D01*
X137125962Y-105399500D01*
X136874038Y-105399500D01*
X136874036Y-105399500D01*
X136625217Y-105438909D01*
X136625204Y-105438912D01*
X136385626Y-105516756D01*
X136161154Y-105631129D01*
X135957348Y-105779203D01*
X135779203Y-105957348D01*
X135631129Y-106161154D01*
X135516756Y-106385626D01*
X135438912Y-106625204D01*
X135438909Y-106625217D01*
X135399500Y-106874036D01*
X135399500Y-107125963D01*
X114600500Y-107125963D01*
X114600500Y-107125962D01*
X114600500Y-106874038D01*
X114561090Y-106625215D01*
X114561088Y-106625210D01*
X114561087Y-106625204D01*
X114483243Y-106385626D01*
X114483241Y-106385623D01*
X114483241Y-106385621D01*
X114423995Y-106269345D01*
X114368870Y-106161154D01*
X114220796Y-105957348D01*
X114220795Y-105957347D01*
X114220793Y-105957344D01*
X114042656Y-105779207D01*
X114042653Y-105779204D01*
X114042651Y-105779203D01*
X113838845Y-105631129D01*
X113614373Y-105516756D01*
X113374795Y-105438912D01*
X113374782Y-105438909D01*
X113125964Y-105399500D01*
X113125962Y-105399500D01*
X112874038Y-105399500D01*
X112874036Y-105399500D01*
X112625217Y-105438909D01*
X112625204Y-105438912D01*
X112385626Y-105516756D01*
X112161154Y-105631129D01*
X111957348Y-105779203D01*
X111779203Y-105957348D01*
X111631129Y-106161154D01*
X111516756Y-106385626D01*
X111438912Y-106625204D01*
X111438909Y-106625217D01*
X111399500Y-106874036D01*
X111399500Y-107125963D01*
X110207574Y-107125963D01*
X110200616Y-107002065D01*
X110200500Y-106997916D01*
X110200500Y-96750003D01*
X113395202Y-96750003D01*
X113414362Y-96981221D01*
X113471320Y-97206145D01*
X113564515Y-97418608D01*
X113691414Y-97612842D01*
X113707524Y-97630341D01*
X114283123Y-97054742D01*
X114319881Y-97118408D01*
X114431592Y-97230119D01*
X114495255Y-97266875D01*
X113921675Y-97840455D01*
X114031645Y-97926048D01*
X114235697Y-98036476D01*
X114455145Y-98111812D01*
X114683990Y-98149999D01*
X114683993Y-98150000D01*
X114916007Y-98150000D01*
X114916009Y-98149999D01*
X115144854Y-98111812D01*
X115364302Y-98036476D01*
X115568353Y-97926048D01*
X115678322Y-97840455D01*
X115678323Y-97840455D01*
X115104743Y-97266875D01*
X115168408Y-97230119D01*
X115280119Y-97118408D01*
X115316876Y-97054743D01*
X115892474Y-97630341D01*
X115908585Y-97612841D01*
X116035484Y-97418608D01*
X116128679Y-97206145D01*
X116185637Y-96981221D01*
X116204798Y-96750003D01*
X116204798Y-96749996D01*
X116185637Y-96518778D01*
X116128679Y-96293854D01*
X116035484Y-96081391D01*
X115908584Y-95887157D01*
X115908585Y-95887157D01*
X115892473Y-95869656D01*
X115316875Y-96445255D01*
X115280119Y-96381592D01*
X115168408Y-96269881D01*
X115104742Y-96233123D01*
X115678323Y-95659543D01*
X115568354Y-95573952D01*
X115568344Y-95573946D01*
X115364302Y-95463523D01*
X115144854Y-95388187D01*
X114916009Y-95350000D01*
X114683990Y-95350000D01*
X114455145Y-95388187D01*
X114235697Y-95463523D01*
X114031655Y-95573946D01*
X114031645Y-95573952D01*
X113921675Y-95659543D01*
X114495256Y-96233124D01*
X114431592Y-96269881D01*
X114319881Y-96381592D01*
X114283124Y-96445256D01*
X113707525Y-95869657D01*
X113707524Y-95869657D01*
X113691420Y-95887149D01*
X113691418Y-95887152D01*
X113564515Y-96081391D01*
X113471320Y-96293854D01*
X113414362Y-96518778D01*
X113395202Y-96749996D01*
X113395202Y-96750003D01*
X110200500Y-96750003D01*
X110200500Y-94469746D01*
X113399500Y-94469746D01*
X113411133Y-94528232D01*
X113432329Y-94559953D01*
X113455448Y-94594552D01*
X113464350Y-94600500D01*
X113521767Y-94638866D01*
X113521768Y-94638866D01*
X113521769Y-94638867D01*
X113580252Y-94650500D01*
X113580254Y-94650500D01*
X116019746Y-94650500D01*
X116019748Y-94650500D01*
X116078231Y-94638867D01*
X116144552Y-94594552D01*
X116188867Y-94528231D01*
X116200500Y-94469748D01*
X116200500Y-92030252D01*
X116188867Y-91971769D01*
X116144552Y-91905448D01*
X116122343Y-91890608D01*
X116078232Y-91861133D01*
X116078233Y-91861133D01*
X116048989Y-91855316D01*
X116019748Y-91849500D01*
X113580252Y-91849500D01*
X113551010Y-91855316D01*
X113521767Y-91861133D01*
X113455449Y-91905447D01*
X113455447Y-91905449D01*
X113411133Y-91971767D01*
X113399500Y-92030253D01*
X113399500Y-94469746D01*
X110200500Y-94469746D01*
X110200500Y-88900000D01*
X117794353Y-88900000D01*
X117814834Y-89042454D01*
X117814834Y-89042455D01*
X117814835Y-89042457D01*
X117874623Y-89173373D01*
X117881425Y-89181222D01*
X117899500Y-89229682D01*
X117899500Y-96287273D01*
X117899500Y-96392727D01*
X117901013Y-96398373D01*
X117926793Y-96494588D01*
X117926795Y-96494592D01*
X117979517Y-96585909D01*
X117979518Y-96585910D01*
X117979520Y-96585913D01*
X119006448Y-97612841D01*
X119847137Y-98453530D01*
X119868058Y-98495324D01*
X119874834Y-98542454D01*
X119934623Y-98673373D01*
X120028868Y-98782139D01*
X120028869Y-98782140D01*
X120028872Y-98782143D01*
X120149947Y-98859953D01*
X120256403Y-98891211D01*
X120288035Y-98900499D01*
X120288037Y-98900500D01*
X120288039Y-98900500D01*
X120431963Y-98900500D01*
X120431964Y-98900499D01*
X120570053Y-98859953D01*
X120691128Y-98782143D01*
X120785377Y-98673373D01*
X120845165Y-98542457D01*
X120865647Y-98400000D01*
X120845165Y-98257543D01*
X120785377Y-98126627D01*
X120723989Y-98055781D01*
X120691131Y-98017860D01*
X120691129Y-98017859D01*
X120691128Y-98017857D01*
X120634182Y-97981260D01*
X120570054Y-97940047D01*
X120570052Y-97940046D01*
X120441491Y-97902297D01*
X120410014Y-97883621D01*
X118722174Y-96195781D01*
X118700500Y-96143455D01*
X118700500Y-89229682D01*
X118718574Y-89181222D01*
X118725377Y-89173373D01*
X118785165Y-89042457D01*
X118805647Y-88900000D01*
X118785165Y-88757543D01*
X118725377Y-88626627D01*
X118725375Y-88626625D01*
X118725375Y-88626624D01*
X118725373Y-88626622D01*
X118718575Y-88618776D01*
X118700500Y-88570316D01*
X118700500Y-88126545D01*
X118722174Y-88074219D01*
X120258174Y-86538219D01*
X120310500Y-86516545D01*
X120362826Y-86538219D01*
X120384500Y-86590545D01*
X120384500Y-87864748D01*
X120392255Y-87903736D01*
X120396133Y-87923232D01*
X120419070Y-87957558D01*
X120440448Y-87989552D01*
X120473674Y-88011753D01*
X120506767Y-88033866D01*
X120506768Y-88033866D01*
X120506769Y-88033867D01*
X120565252Y-88045500D01*
X121085500Y-88045500D01*
X121137826Y-88067174D01*
X121159500Y-88119500D01*
X121159500Y-90220232D01*
X121137826Y-90272558D01*
X120643942Y-90766443D01*
X120566442Y-90843943D01*
X120544234Y-90897559D01*
X120524500Y-90945200D01*
X120524500Y-96954800D01*
X120566443Y-97056058D01*
X125243941Y-101733557D01*
X125243940Y-101733557D01*
X125273599Y-101745841D01*
X125345200Y-101775500D01*
X129342671Y-101775500D01*
X129394997Y-101797174D01*
X129398587Y-101801030D01*
X129468872Y-101882143D01*
X129589947Y-101959953D01*
X129696403Y-101991211D01*
X129728035Y-102000499D01*
X129728037Y-102000500D01*
X129728039Y-102000500D01*
X129871963Y-102000500D01*
X129871964Y-102000499D01*
X130010053Y-101959953D01*
X130131128Y-101882143D01*
X130225377Y-101773373D01*
X130285165Y-101642457D01*
X130305647Y-101500000D01*
X130285165Y-101357543D01*
X130225377Y-101226627D01*
X130131128Y-101117857D01*
X130074182Y-101081260D01*
X130010054Y-101040047D01*
X130010050Y-101040046D01*
X129871964Y-100999500D01*
X129871961Y-100999500D01*
X129728039Y-100999500D01*
X129728036Y-100999500D01*
X129589949Y-101040046D01*
X129589945Y-101040047D01*
X129468875Y-101117855D01*
X129468872Y-101117857D01*
X129398595Y-101198960D01*
X129347950Y-101224311D01*
X129342671Y-101224500D01*
X125544768Y-101224500D01*
X125492442Y-101202826D01*
X125111421Y-100821805D01*
X125089747Y-100769479D01*
X125111421Y-100717153D01*
X125163747Y-100695479D01*
X125203754Y-100707226D01*
X125227447Y-100722453D01*
X125333903Y-100753711D01*
X125365535Y-100762999D01*
X125365537Y-100763000D01*
X125365539Y-100763000D01*
X125509463Y-100763000D01*
X125509464Y-100762999D01*
X125647553Y-100722453D01*
X125721785Y-100674746D01*
X125761792Y-100663000D01*
X128490226Y-100663000D01*
X128490227Y-100663000D01*
X128592088Y-100635707D01*
X128683413Y-100582980D01*
X130820480Y-98445913D01*
X130849781Y-98395160D01*
X130871406Y-98357707D01*
X130873205Y-98354590D01*
X130873206Y-98354588D01*
X130873207Y-98354587D01*
X130900500Y-98252727D01*
X130900500Y-95645544D01*
X130922174Y-95593218D01*
X130974500Y-95571544D01*
X131026826Y-95593218D01*
X131176931Y-95743323D01*
X131176936Y-95743329D01*
X131179520Y-95745913D01*
X131254087Y-95820480D01*
X131345413Y-95873207D01*
X131345414Y-95873207D01*
X131345416Y-95873208D01*
X131378747Y-95882139D01*
X131447270Y-95900500D01*
X131447271Y-95900501D01*
X131447273Y-95900501D01*
X131557257Y-95900501D01*
X131557273Y-95900500D01*
X132975708Y-95900500D01*
X133015714Y-95912246D01*
X133089947Y-95959953D01*
X133194796Y-95990739D01*
X133228035Y-96000499D01*
X133228037Y-96000500D01*
X133228039Y-96000500D01*
X133371963Y-96000500D01*
X133371964Y-96000499D01*
X133510053Y-95959953D01*
X133631128Y-95882143D01*
X133725377Y-95773373D01*
X133785165Y-95642457D01*
X133805647Y-95500000D01*
X133785165Y-95357543D01*
X133725377Y-95226627D01*
X133631128Y-95117857D01*
X133568838Y-95077826D01*
X133510054Y-95040047D01*
X133510050Y-95040046D01*
X133371964Y-94999500D01*
X133371961Y-94999500D01*
X133228039Y-94999500D01*
X133228036Y-94999500D01*
X133089949Y-95040046D01*
X133089945Y-95040047D01*
X133015715Y-95087753D01*
X132975708Y-95099500D01*
X131696544Y-95099500D01*
X131644218Y-95077826D01*
X131012862Y-94446469D01*
X130991941Y-94404673D01*
X130987441Y-94373373D01*
X130985165Y-94357543D01*
X130925377Y-94226627D01*
X130831128Y-94117857D01*
X130774182Y-94081260D01*
X130710054Y-94040047D01*
X130710052Y-94040046D01*
X130581491Y-94002297D01*
X130550014Y-93983621D01*
X130222174Y-93655781D01*
X130200500Y-93603455D01*
X130200500Y-92199682D01*
X130218574Y-92151222D01*
X130225377Y-92143373D01*
X130285165Y-92012457D01*
X130305647Y-91870000D01*
X130285165Y-91727543D01*
X130225377Y-91596627D01*
X130131128Y-91487857D01*
X130074182Y-91451260D01*
X130010054Y-91410047D01*
X130010050Y-91410046D01*
X129871964Y-91369500D01*
X129871961Y-91369500D01*
X129728039Y-91369500D01*
X129728036Y-91369500D01*
X129589949Y-91410046D01*
X129589945Y-91410047D01*
X129468875Y-91487855D01*
X129468868Y-91487860D01*
X129374623Y-91596626D01*
X129314834Y-91727545D01*
X129294353Y-91870000D01*
X129314834Y-92012454D01*
X129314834Y-92012455D01*
X129314835Y-92012457D01*
X129374623Y-92143373D01*
X129381425Y-92151222D01*
X129399500Y-92199682D01*
X129399500Y-93747273D01*
X129399500Y-93852727D01*
X129426793Y-93954588D01*
X129426795Y-93954592D01*
X129479517Y-94045909D01*
X129479518Y-94045910D01*
X129479520Y-94045913D01*
X129791150Y-94357543D01*
X129987137Y-94553530D01*
X130008058Y-94595324D01*
X130014834Y-94642454D01*
X130014834Y-94642455D01*
X130014835Y-94642457D01*
X130074623Y-94773373D01*
X130081425Y-94781222D01*
X130099500Y-94829682D01*
X130099500Y-98003455D01*
X130077826Y-98055781D01*
X128293281Y-99840326D01*
X128240955Y-99862000D01*
X125761792Y-99862000D01*
X125721785Y-99850253D01*
X125647554Y-99802547D01*
X125647550Y-99802546D01*
X125509464Y-99762000D01*
X125509461Y-99762000D01*
X125365539Y-99762000D01*
X125365536Y-99762000D01*
X125227449Y-99802546D01*
X125227445Y-99802547D01*
X125106375Y-99880355D01*
X125106368Y-99880360D01*
X125012123Y-99989126D01*
X124952334Y-100120045D01*
X124931853Y-100262500D01*
X124952334Y-100404954D01*
X124998614Y-100506292D01*
X125000635Y-100562893D01*
X124962042Y-100604346D01*
X124905441Y-100606367D01*
X124878975Y-100589359D01*
X121097174Y-96807558D01*
X121075500Y-96755232D01*
X121075500Y-91144767D01*
X121097174Y-91092441D01*
X121345673Y-90843942D01*
X121668558Y-90521058D01*
X121710500Y-90419800D01*
X121710500Y-90310200D01*
X121710500Y-88119500D01*
X121732174Y-88067174D01*
X121784500Y-88045500D01*
X122304746Y-88045500D01*
X122304748Y-88045500D01*
X122363231Y-88033867D01*
X122429552Y-87989552D01*
X122473867Y-87923231D01*
X122485500Y-87864748D01*
X122485500Y-86174500D01*
X122507174Y-86122174D01*
X122559500Y-86100500D01*
X123202222Y-86100500D01*
X123254548Y-86122174D01*
X123276222Y-86174500D01*
X123254548Y-86226826D01*
X123249167Y-86231703D01*
X123228590Y-86248589D01*
X123228589Y-86248590D01*
X123097315Y-86408549D01*
X122999769Y-86591043D01*
X122939700Y-86789064D01*
X122919417Y-86995000D01*
X122939700Y-87200935D01*
X122999769Y-87398956D01*
X123097315Y-87581450D01*
X123181546Y-87684087D01*
X123228590Y-87741410D01*
X123388550Y-87872685D01*
X123571046Y-87970232D01*
X123769066Y-88030300D01*
X123975000Y-88050583D01*
X124180934Y-88030300D01*
X124378954Y-87970232D01*
X124561450Y-87872685D01*
X124721410Y-87741410D01*
X124843297Y-87592888D01*
X124893246Y-87566190D01*
X124947445Y-87582631D01*
X124974144Y-87632580D01*
X124974500Y-87639834D01*
X124974500Y-87905232D01*
X124952826Y-87957558D01*
X121668942Y-91241443D01*
X121591442Y-91318943D01*
X121549500Y-91420200D01*
X121549500Y-95666700D01*
X121527826Y-95719026D01*
X121515508Y-95728952D01*
X121493877Y-95742853D01*
X121493868Y-95742860D01*
X121399623Y-95851626D01*
X121339834Y-95982545D01*
X121319353Y-96125000D01*
X121339834Y-96267454D01*
X121339834Y-96267455D01*
X121339835Y-96267457D01*
X121391959Y-96381592D01*
X121399623Y-96398373D01*
X121493868Y-96507139D01*
X121493869Y-96507140D01*
X121493872Y-96507143D01*
X121614947Y-96584953D01*
X121721403Y-96616211D01*
X121753035Y-96625499D01*
X121753037Y-96625500D01*
X121753039Y-96625500D01*
X121896963Y-96625500D01*
X121896964Y-96625499D01*
X122035053Y-96584953D01*
X122156128Y-96507143D01*
X122250377Y-96398373D01*
X122310165Y-96267457D01*
X122330647Y-96125000D01*
X122311343Y-95990738D01*
X122325350Y-95935861D01*
X122374059Y-95906961D01*
X122424596Y-95917954D01*
X122489947Y-95959953D01*
X122594796Y-95990739D01*
X122628035Y-96000499D01*
X122628037Y-96000500D01*
X122628039Y-96000500D01*
X122771963Y-96000500D01*
X122771964Y-96000499D01*
X122910053Y-95959953D01*
X123031128Y-95882143D01*
X123125377Y-95773373D01*
X123185165Y-95642457D01*
X123205647Y-95500000D01*
X123185165Y-95357543D01*
X123125377Y-95226627D01*
X123031128Y-95117857D01*
X123031122Y-95117853D01*
X123009492Y-95103952D01*
X122977191Y-95057429D01*
X122975500Y-95041700D01*
X122975500Y-92644767D01*
X122997174Y-92592441D01*
X124823172Y-90766443D01*
X126748558Y-88841058D01*
X126790500Y-88739800D01*
X126790500Y-88630200D01*
X126790500Y-88064079D01*
X126812174Y-88011753D01*
X126843017Y-87993266D01*
X126918954Y-87970232D01*
X127101450Y-87872685D01*
X127261410Y-87741410D01*
X127392685Y-87581450D01*
X127490232Y-87398954D01*
X127550300Y-87200934D01*
X127570583Y-86995000D01*
X127550300Y-86789066D01*
X127490232Y-86591046D01*
X127392685Y-86408550D01*
X127261410Y-86248590D01*
X127234891Y-86226826D01*
X127101449Y-86117314D01*
X127096674Y-86114762D01*
X127060743Y-86070981D01*
X127066295Y-86014617D01*
X127110076Y-85978686D01*
X127131557Y-85975500D01*
X127615233Y-85975500D01*
X127667559Y-85997174D01*
X128104238Y-86433853D01*
X128125912Y-86486179D01*
X128117174Y-86521062D01*
X128079770Y-86591041D01*
X128019700Y-86789064D01*
X127999417Y-86995000D01*
X128019700Y-87200935D01*
X128079769Y-87398956D01*
X128177315Y-87581450D01*
X128261546Y-87684087D01*
X128308590Y-87741410D01*
X128468550Y-87872685D01*
X128651046Y-87970232D01*
X128849066Y-88030300D01*
X129055000Y-88050583D01*
X129260934Y-88030300D01*
X129458954Y-87970232D01*
X129641450Y-87872685D01*
X129801410Y-87741410D01*
X129932685Y-87581450D01*
X130030232Y-87398954D01*
X130090300Y-87200934D01*
X130110583Y-86995000D01*
X130090300Y-86789066D01*
X130030232Y-86591046D01*
X129932685Y-86408550D01*
X129801410Y-86248590D01*
X129774890Y-86226826D01*
X129641450Y-86117315D01*
X129458956Y-86019769D01*
X129458955Y-86019768D01*
X129458954Y-86019768D01*
X129323523Y-85978686D01*
X129260935Y-85959700D01*
X129055000Y-85939417D01*
X128849064Y-85959700D01*
X128764162Y-85985455D01*
X128651046Y-86019768D01*
X128651043Y-86019769D01*
X128651041Y-86019770D01*
X128581062Y-86057174D01*
X128524697Y-86062725D01*
X128493853Y-86044238D01*
X127916060Y-85466445D01*
X127916055Y-85466441D01*
X127916051Y-85466440D01*
X127916037Y-85466433D01*
X127814800Y-85424500D01*
X127196390Y-85424500D01*
X127144064Y-85402826D01*
X127122390Y-85350500D01*
X127144064Y-85298174D01*
X127149445Y-85293297D01*
X127175162Y-85272190D01*
X127261410Y-85201410D01*
X127392685Y-85041450D01*
X127490232Y-84858954D01*
X127550300Y-84660934D01*
X127570583Y-84455000D01*
X127550300Y-84249066D01*
X127490232Y-84051046D01*
X127392685Y-83868550D01*
X127261410Y-83708590D01*
X127101450Y-83577315D01*
X127021838Y-83534761D01*
X126985909Y-83490981D01*
X126991461Y-83434616D01*
X127035242Y-83398686D01*
X127056723Y-83395500D01*
X128514336Y-83395500D01*
X128566662Y-83417174D01*
X128588336Y-83469500D01*
X128566662Y-83521826D01*
X128549220Y-83534762D01*
X128468830Y-83577731D01*
X128468821Y-83577737D01*
X128308945Y-83708945D01*
X128177737Y-83868821D01*
X128177731Y-83868830D01*
X128080233Y-84051235D01*
X128020192Y-84249162D01*
X128014693Y-84305000D01*
X128577555Y-84305000D01*
X128555000Y-84389174D01*
X128555000Y-84520826D01*
X128577555Y-84605000D01*
X128014693Y-84605000D01*
X128020192Y-84660837D01*
X128080233Y-84858764D01*
X128177731Y-85041169D01*
X128177737Y-85041178D01*
X128308945Y-85201054D01*
X128468821Y-85332262D01*
X128468830Y-85332268D01*
X128651235Y-85429766D01*
X128849162Y-85489807D01*
X128905000Y-85495306D01*
X128905000Y-84932445D01*
X128989174Y-84955000D01*
X129120826Y-84955000D01*
X129205000Y-84932445D01*
X129205000Y-85495306D01*
X129260837Y-85489807D01*
X129458764Y-85429766D01*
X129641169Y-85332268D01*
X129641178Y-85332262D01*
X129801054Y-85201054D01*
X129932262Y-85041178D01*
X129932268Y-85041169D01*
X130029766Y-84858764D01*
X130089807Y-84660837D01*
X130095307Y-84605000D01*
X129532445Y-84605000D01*
X129555000Y-84520826D01*
X129555000Y-84389174D01*
X129532445Y-84305000D01*
X130095306Y-84305000D01*
X130089807Y-84249162D01*
X130029766Y-84051235D01*
X129932268Y-83868830D01*
X129932262Y-83868821D01*
X129801054Y-83708945D01*
X129641178Y-83577737D01*
X129641169Y-83577731D01*
X129560780Y-83534762D01*
X129524850Y-83490981D01*
X129530402Y-83434616D01*
X129574183Y-83398686D01*
X129595664Y-83395500D01*
X130095233Y-83395500D01*
X130147559Y-83417174D01*
X132962826Y-86232441D01*
X132984500Y-86284767D01*
X132984500Y-90845233D01*
X132962826Y-90897559D01*
X131416442Y-92443943D01*
X131374500Y-92545200D01*
X131374500Y-93641700D01*
X131352826Y-93694026D01*
X131340508Y-93703952D01*
X131318877Y-93717853D01*
X131318868Y-93717860D01*
X131224623Y-93826626D01*
X131164834Y-93957545D01*
X131144353Y-94100000D01*
X131164834Y-94242454D01*
X131224623Y-94373373D01*
X131318868Y-94482139D01*
X131318869Y-94482140D01*
X131318872Y-94482143D01*
X131390588Y-94528232D01*
X131429952Y-94553530D01*
X131439947Y-94559953D01*
X131546403Y-94591211D01*
X131578035Y-94600499D01*
X131578037Y-94600500D01*
X131578039Y-94600500D01*
X131721963Y-94600500D01*
X131721964Y-94600499D01*
X131860053Y-94559953D01*
X131981128Y-94482143D01*
X132075377Y-94373373D01*
X132135165Y-94242457D01*
X132155647Y-94100000D01*
X132135165Y-93957543D01*
X132075377Y-93826627D01*
X131981128Y-93717857D01*
X131981122Y-93717853D01*
X131959492Y-93703952D01*
X131927191Y-93657429D01*
X131925500Y-93641700D01*
X131925500Y-92744766D01*
X131947173Y-92692441D01*
X133493557Y-91146058D01*
X133535500Y-91044800D01*
X133535500Y-90935200D01*
X133535500Y-86085200D01*
X133493557Y-85983942D01*
X133416058Y-85906443D01*
X130396058Y-82886443D01*
X130396057Y-82886442D01*
X130396029Y-82886430D01*
X130396029Y-82886431D01*
X130396017Y-82886426D01*
X130294800Y-82844500D01*
X125255200Y-82844500D01*
X125183890Y-82874038D01*
X125183889Y-82874038D01*
X125153943Y-82886441D01*
X125153939Y-82886444D01*
X124536145Y-83504238D01*
X124483819Y-83525912D01*
X124448936Y-83517174D01*
X124378958Y-83479769D01*
X124180935Y-83419700D01*
X123975000Y-83399417D01*
X123769064Y-83419700D01*
X123571043Y-83479769D01*
X123388549Y-83577315D01*
X123228590Y-83708589D01*
X123228589Y-83708590D01*
X123097315Y-83868549D01*
X122999769Y-84051043D01*
X122939700Y-84249064D01*
X122938425Y-84262007D01*
X122919417Y-84455000D01*
X122939700Y-84660934D01*
X122999710Y-84858764D01*
X122999769Y-84858956D01*
X123097315Y-85041450D01*
X123209833Y-85178555D01*
X123226274Y-85232754D01*
X123199575Y-85282703D01*
X123152630Y-85299500D01*
X122257370Y-85299500D01*
X122205044Y-85277826D01*
X122183370Y-85225500D01*
X122200167Y-85178555D01*
X122237552Y-85133000D01*
X122312685Y-85041450D01*
X122410232Y-84858954D01*
X122470300Y-84660934D01*
X122490583Y-84455000D01*
X122470300Y-84249066D01*
X122410232Y-84051046D01*
X122372823Y-83981061D01*
X122367272Y-83924699D01*
X122385758Y-83893855D01*
X123922442Y-82357174D01*
X123974768Y-82335500D01*
X130275233Y-82335500D01*
X130327559Y-82357174D01*
X134172826Y-86202441D01*
X134194500Y-86254767D01*
X134194500Y-91935231D01*
X134172826Y-91987557D01*
X133782182Y-92378200D01*
X133729856Y-92399874D01*
X133724622Y-92399500D01*
X133721961Y-92399500D01*
X133578039Y-92399500D01*
X133578036Y-92399500D01*
X133439949Y-92440046D01*
X133439945Y-92440047D01*
X133318875Y-92517855D01*
X133318868Y-92517860D01*
X133224623Y-92626626D01*
X133164834Y-92757545D01*
X133144353Y-92900000D01*
X133164834Y-93042454D01*
X133224623Y-93173373D01*
X133318868Y-93282139D01*
X133318869Y-93282140D01*
X133318872Y-93282143D01*
X133439947Y-93359953D01*
X133546403Y-93391211D01*
X133578035Y-93400499D01*
X133578037Y-93400500D01*
X133578039Y-93400500D01*
X133721963Y-93400500D01*
X133721964Y-93400499D01*
X133860053Y-93359953D01*
X133981128Y-93282143D01*
X134075377Y-93173373D01*
X134135165Y-93042457D01*
X134155647Y-92900000D01*
X134146332Y-92835216D01*
X134160339Y-92780340D01*
X134167245Y-92772368D01*
X134703557Y-92236059D01*
X134719301Y-92198050D01*
X134745500Y-92134800D01*
X134745500Y-86055200D01*
X134703557Y-85953942D01*
X134626058Y-85876443D01*
X131875578Y-83125963D01*
X135399500Y-83125963D01*
X135438909Y-83374782D01*
X135438912Y-83374795D01*
X135516756Y-83614373D01*
X135631129Y-83838845D01*
X135715521Y-83955000D01*
X135779207Y-84042656D01*
X135957344Y-84220793D01*
X135957347Y-84220795D01*
X135957348Y-84220796D01*
X136161154Y-84368870D01*
X136269345Y-84423995D01*
X136385621Y-84483241D01*
X136385623Y-84483241D01*
X136385626Y-84483243D01*
X136625204Y-84561087D01*
X136625210Y-84561088D01*
X136625215Y-84561090D01*
X136749626Y-84580795D01*
X136874036Y-84600500D01*
X136874038Y-84600500D01*
X137125964Y-84600500D01*
X137225491Y-84584736D01*
X137374785Y-84561090D01*
X137374792Y-84561087D01*
X137374795Y-84561087D01*
X137614373Y-84483243D01*
X137614373Y-84483242D01*
X137614379Y-84483241D01*
X137838845Y-84368870D01*
X138042656Y-84220793D01*
X138220793Y-84042656D01*
X138368870Y-83838845D01*
X138483241Y-83614379D01*
X138553324Y-83398686D01*
X138561087Y-83374795D01*
X138561087Y-83374792D01*
X138561090Y-83374785D01*
X138600500Y-83125962D01*
X138600500Y-82874038D01*
X138593884Y-82832269D01*
X138561090Y-82625217D01*
X138561087Y-82625204D01*
X138483243Y-82385626D01*
X138483241Y-82385623D01*
X138483241Y-82385621D01*
X138423995Y-82269345D01*
X138368870Y-82161154D01*
X138220796Y-81957348D01*
X138220795Y-81957347D01*
X138220793Y-81957344D01*
X138042656Y-81779207D01*
X138042653Y-81779204D01*
X138042651Y-81779203D01*
X137838845Y-81631129D01*
X137614373Y-81516756D01*
X137374795Y-81438912D01*
X137374782Y-81438909D01*
X137125964Y-81399500D01*
X137125962Y-81399500D01*
X136874038Y-81399500D01*
X136874036Y-81399500D01*
X136625217Y-81438909D01*
X136625204Y-81438912D01*
X136385626Y-81516756D01*
X136161154Y-81631129D01*
X135957348Y-81779203D01*
X135779203Y-81957348D01*
X135631129Y-82161154D01*
X135516756Y-82385626D01*
X135438912Y-82625204D01*
X135438909Y-82625217D01*
X135399500Y-82874036D01*
X135399500Y-83125963D01*
X131875578Y-83125963D01*
X130576058Y-81826443D01*
X130474800Y-81784500D01*
X123775200Y-81784500D01*
X123703598Y-81814157D01*
X123703599Y-81814158D01*
X123673942Y-81826442D01*
X121996145Y-83504238D01*
X121943819Y-83525912D01*
X121908936Y-83517174D01*
X121838958Y-83479769D01*
X121640935Y-83419700D01*
X121435000Y-83399417D01*
X121229064Y-83419700D01*
X121031043Y-83479769D01*
X120848549Y-83577315D01*
X120688590Y-83708589D01*
X120688589Y-83708590D01*
X120557315Y-83868549D01*
X120459769Y-84051043D01*
X120399700Y-84249064D01*
X120398425Y-84262007D01*
X120379417Y-84455000D01*
X120399700Y-84660934D01*
X120459710Y-84858764D01*
X120459769Y-84858956D01*
X120557315Y-85041450D01*
X120669833Y-85178555D01*
X120686274Y-85232754D01*
X120659575Y-85282703D01*
X120612630Y-85299500D01*
X120582727Y-85299500D01*
X120477273Y-85299500D01*
X120426342Y-85313146D01*
X120375411Y-85326793D01*
X120375407Y-85326795D01*
X120284090Y-85379517D01*
X117979517Y-87684090D01*
X117926792Y-87775412D01*
X117926793Y-87775413D01*
X117899500Y-87877273D01*
X117899500Y-88570316D01*
X117881425Y-88618776D01*
X117874626Y-88626622D01*
X117874624Y-88626624D01*
X117814834Y-88757545D01*
X117794353Y-88900000D01*
X110200500Y-88900000D01*
X110200500Y-83125963D01*
X111399500Y-83125963D01*
X111438909Y-83374782D01*
X111438912Y-83374795D01*
X111516756Y-83614373D01*
X111631129Y-83838845D01*
X111715521Y-83955000D01*
X111779207Y-84042656D01*
X111957344Y-84220793D01*
X111957347Y-84220795D01*
X111957348Y-84220796D01*
X112161154Y-84368870D01*
X112269345Y-84423995D01*
X112385621Y-84483241D01*
X112385623Y-84483241D01*
X112385626Y-84483243D01*
X112625204Y-84561087D01*
X112625210Y-84561088D01*
X112625215Y-84561090D01*
X112749626Y-84580795D01*
X112874036Y-84600500D01*
X112874038Y-84600500D01*
X113125964Y-84600500D01*
X113225491Y-84584736D01*
X113374785Y-84561090D01*
X113374792Y-84561087D01*
X113374795Y-84561087D01*
X113614373Y-84483243D01*
X113614373Y-84483242D01*
X113614379Y-84483241D01*
X113838845Y-84368870D01*
X114042656Y-84220793D01*
X114220793Y-84042656D01*
X114368870Y-83838845D01*
X114483241Y-83614379D01*
X114553324Y-83398686D01*
X114561087Y-83374795D01*
X114561087Y-83374792D01*
X114561090Y-83374785D01*
X114600500Y-83125962D01*
X114600500Y-82874038D01*
X114593884Y-82832269D01*
X114561090Y-82625217D01*
X114561087Y-82625204D01*
X114483243Y-82385626D01*
X114483241Y-82385623D01*
X114483241Y-82385621D01*
X114423995Y-82269345D01*
X114368870Y-82161154D01*
X114220796Y-81957348D01*
X114220795Y-81957347D01*
X114220793Y-81957344D01*
X114042656Y-81779207D01*
X114042653Y-81779204D01*
X114042651Y-81779203D01*
X113838845Y-81631129D01*
X113614373Y-81516756D01*
X113374795Y-81438912D01*
X113374782Y-81438909D01*
X113125964Y-81399500D01*
X113125962Y-81399500D01*
X112874038Y-81399500D01*
X112874036Y-81399500D01*
X112625217Y-81438909D01*
X112625204Y-81438912D01*
X112385626Y-81516756D01*
X112161154Y-81631129D01*
X111957348Y-81779203D01*
X111779203Y-81957348D01*
X111631129Y-82161154D01*
X111516756Y-82385626D01*
X111438912Y-82625204D01*
X111438909Y-82625217D01*
X111399500Y-82874036D01*
X111399500Y-83125963D01*
X110200500Y-83125963D01*
X110200500Y-83002083D01*
X110200616Y-82997934D01*
X110209233Y-82844500D01*
X110217870Y-82690688D01*
X110218800Y-82682450D01*
X110269994Y-82381140D01*
X110271833Y-82373080D01*
X110356453Y-82079361D01*
X110359183Y-82071558D01*
X110476150Y-81789175D01*
X110479743Y-81781713D01*
X110627590Y-81514204D01*
X110631991Y-81507199D01*
X110808875Y-81257904D01*
X110814020Y-81251453D01*
X111017690Y-81023548D01*
X111023553Y-81017686D01*
X111251453Y-80814020D01*
X111257904Y-80808875D01*
X111507199Y-80631991D01*
X111514204Y-80627590D01*
X111781713Y-80479743D01*
X111789175Y-80476150D01*
X112071558Y-80359183D01*
X112079361Y-80356453D01*
X112373080Y-80271833D01*
X112381140Y-80269994D01*
X112682458Y-80218799D01*
X112690688Y-80217870D01*
X112997934Y-80200615D01*
X113002083Y-80200500D01*
X113039882Y-80200500D01*
X136960118Y-80200500D01*
X136997917Y-80200500D01*
X137002065Y-80200615D01*
G37*
%TD.AperFunction*%
%TD*%
M02*
