%TF.GenerationSoftware,KiCad,Pcbnew,8.0.0-rc3-3-g27911d9b5a*%
%TF.CreationDate,2025-03-15T22:51:04+01:00*%
%TF.ProjectId,MSPM0C1104S8YCJR,4d53504d-3043-4313-9130-34533859434a,rev?*%
%TF.SameCoordinates,Original*%
%TF.FileFunction,Copper,L1,Top*%
%TF.FilePolarity,Positive*%
%FSLAX46Y46*%
G04 Gerber Fmt 4.6, Leading zero omitted, Abs format (unit mm)*
G04 Created by KiCad (PCBNEW 8.0.0-rc3-3-g27911d9b5a) date 2025-03-15 22:51:05*
%MOMM*%
%LPD*%
G01*
G04 APERTURE LIST*
G04 Aperture macros list*
%AMRoundRect*
0 Rectangle with rounded corners*
0 $1 Rounding radius*
0 $2 $3 $4 $5 $6 $7 $8 $9 X,Y pos of 4 corners*
0 Add a 4 corners polygon primitive as box body*
4,1,4,$2,$3,$4,$5,$6,$7,$8,$9,$2,$3,0*
0 Add four circle primitives for the rounded corners*
1,1,$1+$1,$2,$3*
1,1,$1+$1,$4,$5*
1,1,$1+$1,$6,$7*
1,1,$1+$1,$8,$9*
0 Add four rect primitives between the rounded corners*
20,1,$1+$1,$2,$3,$4,$5,0*
20,1,$1+$1,$4,$5,$6,$7,0*
20,1,$1+$1,$6,$7,$8,$9,0*
20,1,$1+$1,$8,$9,$2,$3,0*%
G04 Aperture macros list end*
%TA.AperFunction,SMDPad,CuDef*%
%ADD10RoundRect,0.250000X0.650000X-0.350000X0.650000X0.350000X-0.650000X0.350000X-0.650000X-0.350000X0*%
%TD*%
%TA.AperFunction,SMDPad,CuDef*%
%ADD11RoundRect,0.150000X0.625000X-0.150000X0.625000X0.150000X-0.625000X0.150000X-0.625000X-0.150000X0*%
%TD*%
%TA.AperFunction,SMDPad,CuDef*%
%ADD12C,0.200000*%
%TD*%
%TA.AperFunction,SMDPad,CuDef*%
%ADD13RoundRect,0.150000X-0.512500X-0.150000X0.512500X-0.150000X0.512500X0.150000X-0.512500X0.150000X0*%
%TD*%
%TA.AperFunction,SMDPad,CuDef*%
%ADD14RoundRect,0.135000X-0.135000X-0.185000X0.135000X-0.185000X0.135000X0.185000X-0.135000X0.185000X0*%
%TD*%
%TA.AperFunction,SMDPad,CuDef*%
%ADD15RoundRect,0.135000X-0.185000X0.135000X-0.185000X-0.135000X0.185000X-0.135000X0.185000X0.135000X0*%
%TD*%
%TA.AperFunction,ComponentPad*%
%ADD16R,2.400000X2.400000*%
%TD*%
%TA.AperFunction,ComponentPad*%
%ADD17C,2.400000*%
%TD*%
%TA.AperFunction,ComponentPad*%
%ADD18R,1.700000X1.700000*%
%TD*%
%TA.AperFunction,ComponentPad*%
%ADD19O,1.700000X1.700000*%
%TD*%
%TA.AperFunction,SMDPad,CuDef*%
%ADD20RoundRect,0.218750X0.218750X0.256250X-0.218750X0.256250X-0.218750X-0.256250X0.218750X-0.256250X0*%
%TD*%
%TA.AperFunction,SMDPad,CuDef*%
%ADD21RoundRect,0.218750X-0.218750X-0.256250X0.218750X-0.256250X0.218750X0.256250X-0.218750X0.256250X0*%
%TD*%
%TA.AperFunction,SMDPad,CuDef*%
%ADD22RoundRect,0.225000X-0.250000X0.225000X-0.250000X-0.225000X0.250000X-0.225000X0.250000X0.225000X0*%
%TD*%
%TA.AperFunction,SMDPad,CuDef*%
%ADD23RoundRect,0.140000X-0.170000X0.140000X-0.170000X-0.140000X0.170000X-0.140000X0.170000X0.140000X0*%
%TD*%
%TA.AperFunction,ViaPad*%
%ADD24C,0.600000*%
%TD*%
%TA.AperFunction,Conductor*%
%ADD25C,0.150000*%
%TD*%
%TA.AperFunction,Conductor*%
%ADD26C,0.400000*%
%TD*%
%TA.AperFunction,Conductor*%
%ADD27C,0.200000*%
%TD*%
%TA.AperFunction,Conductor*%
%ADD28C,0.500000*%
%TD*%
G04 APERTURE END LIST*
D10*
%TO.P,J3,MP*%
%TO.N,N/C*%
X138775000Y-97800000D03*
X138775000Y-92200000D03*
D11*
%TO.P,J3,4,Pin_4*%
%TO.N,/I2C0_SCL*%
X134900000Y-93500000D03*
%TO.P,J3,3,Pin_3*%
%TO.N,/I2C0_SDA*%
X134900000Y-94500000D03*
%TO.P,J3,2,Pin_2*%
%TO.N,+3V3*%
X134900000Y-95500000D03*
%TO.P,J3,1,Pin_1*%
%TO.N,GND*%
X134900000Y-96500000D03*
%TD*%
D12*
%TO.P,U1,A1,PA24*%
%TO.N,/PA24*%
X126150000Y-95075000D03*
%TO.P,U1,A2,PA0*%
%TO.N,/I2C0_SDA*%
X126500000Y-95075000D03*
%TO.P,U1,B1,PA27*%
%TO.N,/PA27*%
X126150000Y-95425000D03*
%TO.P,U1,B2,PA1/~{RST}*%
%TO.N,/I2C0_SCL*%
X126500000Y-95425000D03*
%TO.P,U1,C1,PA20*%
%TO.N,/SWCLK*%
X126150000Y-95775000D03*
%TO.P,U1,C2,VDD*%
%TO.N,+3V3*%
X126500000Y-95775000D03*
%TO.P,U1,D1,PA19*%
%TO.N,/SWDIO*%
X126150000Y-96125000D03*
%TO.P,U1,D2,VSS*%
%TO.N,GND*%
X126500000Y-96125000D03*
%TD*%
D13*
%TO.P,U2,1,IN*%
%TO.N,Net-(J2-Pin_1)*%
X120800000Y-101450000D03*
%TO.P,U2,2,GND*%
%TO.N,GND*%
X120800000Y-102400000D03*
%TO.P,U2,3,EN*%
%TO.N,Net-(J2-Pin_1)*%
X120800000Y-103350000D03*
%TO.P,U2,4,NC*%
%TO.N,unconnected-(U2-NC-Pad4)*%
X123075000Y-103350000D03*
%TO.P,U2,5,OUT*%
%TO.N,+3V3*%
X123075000Y-101450000D03*
%TD*%
D14*
%TO.P,R5,1*%
%TO.N,Net-(D1-A)*%
X116380000Y-88900000D03*
%TO.P,R5,2*%
%TO.N,+3V3*%
X117400000Y-88900000D03*
%TD*%
D15*
%TO.P,R4,1*%
%TO.N,+3V3*%
X132800000Y-91890000D03*
%TO.P,R4,2*%
%TO.N,/I2C0_SDA*%
X132800000Y-92910000D03*
%TD*%
%TO.P,R3,2*%
%TO.N,/I2C0_SCL*%
X131290000Y-92900000D03*
%TO.P,R3,1*%
%TO.N,+3V3*%
X131290000Y-91880000D03*
%TD*%
D14*
%TO.P,R2,1*%
%TO.N,/PA24*%
X130980000Y-101500000D03*
%TO.P,R2,2*%
%TO.N,Net-(D2-A)*%
X132000000Y-101500000D03*
%TD*%
D16*
%TO.P,J2,1,Pin_1*%
%TO.N,Net-(J2-Pin_1)*%
X114800000Y-93250000D03*
D17*
%TO.P,J2,2,Pin_2*%
%TO.N,GND*%
X114800000Y-96750000D03*
%TD*%
D18*
%TO.P,J1,1,Pin_1*%
%TO.N,/PA24*%
X121435000Y-86995000D03*
D19*
%TO.P,J1,2,Pin_2*%
%TO.N,/I2C0_SDA*%
X121435000Y-84455000D03*
%TO.P,J1,3,Pin_3*%
%TO.N,/PA27*%
X123975000Y-86995000D03*
%TO.P,J1,4,Pin_4*%
%TO.N,/I2C0_SCL*%
X123975000Y-84455000D03*
%TO.P,J1,5,Pin_5*%
%TO.N,/SWCLK*%
X126515000Y-86995000D03*
%TO.P,J1,6,Pin_6*%
%TO.N,+3V3*%
X126515000Y-84455000D03*
%TO.P,J1,7,Pin_7*%
%TO.N,/SWDIO*%
X129055000Y-86995000D03*
%TO.P,J1,8,Pin_8*%
%TO.N,GND*%
X129055000Y-84455000D03*
%TD*%
D20*
%TO.P,D2,1,K*%
%TO.N,GND*%
X135287500Y-101500000D03*
%TO.P,D2,2,A*%
%TO.N,Net-(D2-A)*%
X133712500Y-101500000D03*
%TD*%
D21*
%TO.P,D1,1,K*%
%TO.N,GND*%
X113225000Y-88900000D03*
%TO.P,D1,2,A*%
%TO.N,Net-(D1-A)*%
X114800000Y-88900000D03*
%TD*%
D22*
%TO.P,C4,1*%
%TO.N,+3V3*%
X125437500Y-101425000D03*
%TO.P,C4,2*%
%TO.N,GND*%
X125437500Y-102975000D03*
%TD*%
%TO.P,C3,1*%
%TO.N,Net-(J2-Pin_1)*%
X118437500Y-101450000D03*
%TO.P,C3,2*%
%TO.N,GND*%
X118437500Y-103000000D03*
%TD*%
%TO.P,C2,1*%
%TO.N,+3V3*%
X130500000Y-95550000D03*
%TO.P,C2,2*%
%TO.N,GND*%
X130500000Y-97100000D03*
%TD*%
D23*
%TO.P,C1,1*%
%TO.N,+3V3*%
X129020000Y-95520000D03*
%TO.P,C1,2*%
%TO.N,GND*%
X129020000Y-96480000D03*
%TD*%
D24*
%TO.N,GND*%
X132650000Y-93750000D03*
%TO.N,/I2C0_SDA*%
X133650000Y-92900000D03*
%TO.N,/I2C0_SCL*%
X131650000Y-94100000D03*
%TO.N,GND*%
X138500000Y-96050000D03*
%TO.N,+3V3*%
X133300000Y-95500000D03*
%TO.N,GND*%
X132900000Y-96550000D03*
X122500000Y-91700000D03*
X123500000Y-90850000D03*
X119960000Y-96470000D03*
X117350000Y-97860000D03*
X113490000Y-102820000D03*
X132630000Y-107260000D03*
X116580000Y-81050000D03*
X116150000Y-85570000D03*
X124980000Y-91920000D03*
X123290000Y-93720000D03*
X127700000Y-89760000D03*
X135970000Y-98010000D03*
X137530000Y-102080000D03*
X139050000Y-103260000D03*
X138670000Y-100860000D03*
X137300000Y-99720000D03*
X133170000Y-98040000D03*
X126960000Y-98750000D03*
X131490000Y-99670000D03*
X131980000Y-103850000D03*
X129980000Y-103860000D03*
X127850000Y-102420000D03*
X126550000Y-102990000D03*
X125430000Y-104040000D03*
X120370000Y-107380000D03*
X117180000Y-105920000D03*
X115840000Y-103230000D03*
X118960000Y-99680000D03*
X114530000Y-99970000D03*
X110780000Y-103540000D03*
X111020000Y-101010000D03*
X119370000Y-88270000D03*
X117960000Y-86700000D03*
X116580000Y-90290000D03*
X111150000Y-88760000D03*
X111460000Y-86550000D03*
X117310000Y-83030000D03*
X119680000Y-80890000D03*
X125060000Y-80940000D03*
X131260000Y-80970000D03*
X133790000Y-80970000D03*
X132890000Y-82770000D03*
X133860000Y-86400000D03*
X133860000Y-89440000D03*
X138370000Y-88380000D03*
X138880000Y-86600000D03*
X136000000Y-87060000D03*
X131850000Y-87080000D03*
X131950000Y-90420000D03*
X127030000Y-91800000D03*
X119550000Y-90270000D03*
X119850000Y-92940000D03*
X122930000Y-97270000D03*
X135280000Y-100340000D03*
X137650000Y-93510000D03*
X131590000Y-97110000D03*
X129020000Y-97180000D03*
X113240000Y-90080000D03*
X117150000Y-103000000D03*
%TO.N,+3V3*%
X120360000Y-98400000D03*
%TO.N,/PA24*%
X129800000Y-101500000D03*
%TO.N,+3V3*%
X125437500Y-100262500D03*
X129800000Y-91870000D03*
X130500000Y-94500000D03*
X118300000Y-88900000D03*
%TO.N,/SWCLK*%
X122700000Y-95500000D03*
%TO.N,/SWDIO*%
X121825000Y-96125000D03*
%TD*%
D25*
%TO.N,/I2C0_SCL*%
X133800000Y-93500000D02*
X134900000Y-93500000D01*
X132800000Y-94500000D02*
X133800000Y-93500000D01*
X131650000Y-94100000D02*
X132050000Y-94500000D01*
X132050000Y-94500000D02*
X132800000Y-94500000D01*
%TO.N,/I2C0_SDA*%
X133660000Y-92910000D02*
X135960000Y-92910000D01*
X133650000Y-92900000D02*
X133660000Y-92910000D01*
X133640000Y-92910000D02*
X133650000Y-92900000D01*
%TO.N,/I2C0_SCL*%
X131290000Y-93790000D02*
X131600000Y-94100000D01*
X131290000Y-92900000D02*
X131290000Y-93790000D01*
X131600000Y-94100000D02*
X131650000Y-94100000D01*
%TO.N,/I2C0_SDA*%
X136000000Y-94500000D02*
X134900000Y-94500000D01*
X136150000Y-93100000D02*
X136150000Y-94350000D01*
X135960000Y-92910000D02*
X136150000Y-93100000D01*
X132800000Y-92910000D02*
X133640000Y-92910000D01*
X136150000Y-94350000D02*
X136000000Y-94500000D01*
X132760000Y-92910000D02*
X132800000Y-92910000D01*
X129295000Y-92405000D02*
X132255000Y-92405000D01*
X127920000Y-95080000D02*
X128500000Y-94500000D01*
X132255000Y-92405000D02*
X132760000Y-92910000D01*
X126500000Y-95080000D02*
X127920000Y-95080000D01*
X128500000Y-94500000D02*
X128500000Y-93200000D01*
X128500000Y-93200000D02*
X129295000Y-92405000D01*
D26*
%TO.N,+3V3*%
X134900000Y-95500000D02*
X133300000Y-95500000D01*
D25*
%TO.N,/PA27*%
X122500000Y-90700000D02*
X122500000Y-88470000D01*
X122500000Y-88470000D02*
X123975000Y-86995000D01*
X123900000Y-95000000D02*
X123900000Y-92100000D01*
X123900000Y-92100000D02*
X122500000Y-90700000D01*
X124325000Y-95425000D02*
X123900000Y-95000000D01*
X126150000Y-95425000D02*
X124325000Y-95425000D01*
%TO.N,GND*%
X130500000Y-97100000D02*
X131580000Y-97100000D01*
X131580000Y-97100000D02*
X131590000Y-97110000D01*
D26*
X118437500Y-103000000D02*
X117150000Y-103000000D01*
X119270000Y-103000000D02*
X118437500Y-103000000D01*
X119870000Y-102400000D02*
X119270000Y-103000000D01*
X120800000Y-102400000D02*
X119870000Y-102400000D01*
%TO.N,+3V3*%
X129800000Y-91870000D02*
X130280000Y-91880000D01*
X130280000Y-91880000D02*
X131290000Y-91880000D01*
X124260000Y-98400000D02*
X120360000Y-98400000D01*
X125230000Y-99370000D02*
X124260000Y-98400000D01*
X125437500Y-99577500D02*
X125230000Y-99370000D01*
X125437500Y-100262500D02*
X125437500Y-99577500D01*
D25*
%TO.N,/PA24*%
X130980000Y-101500000D02*
X129800000Y-101500000D01*
%TO.N,+3V3*%
X125500000Y-100200000D02*
X125437500Y-100262500D01*
D26*
X125437500Y-101425000D02*
X125437500Y-100262500D01*
D25*
%TO.N,Net-(D2-A)*%
X133712500Y-101500000D02*
X132000000Y-101500000D01*
D27*
%TO.N,Net-(J2-Pin_1)*%
X121750000Y-101450000D02*
X121900000Y-101600000D01*
X121900000Y-101600000D02*
X121900000Y-103200000D01*
X121900000Y-103200000D02*
X121750000Y-103350000D01*
X121750000Y-103350000D02*
X120800000Y-103350000D01*
X120800000Y-101450000D02*
X121750000Y-101450000D01*
D25*
%TO.N,+3V3*%
X125412500Y-101450000D02*
X125437500Y-101425000D01*
D26*
X123075000Y-101450000D02*
X125412500Y-101450000D01*
D28*
%TO.N,Net-(J2-Pin_1)*%
X118437500Y-101450000D02*
X120800000Y-101450000D01*
X112300000Y-95750000D02*
X114800000Y-93250000D01*
X112300000Y-99900000D02*
X112300000Y-95750000D01*
X113850000Y-101450000D02*
X112300000Y-99900000D01*
X118437500Y-101450000D02*
X113850000Y-101450000D01*
D26*
%TO.N,+3V3*%
X130500000Y-95550000D02*
X130500000Y-94500000D01*
D25*
%TO.N,/I2C0_SCL*%
X128900000Y-93400000D02*
X129400000Y-92900000D01*
X128075000Y-95425000D02*
X128900000Y-94600000D01*
X128900000Y-94600000D02*
X128900000Y-93400000D01*
X129400000Y-92900000D02*
X131290000Y-92900000D01*
X126500000Y-95425000D02*
X128075000Y-95425000D01*
%TO.N,+3V3*%
X134400000Y-95500000D02*
X134470000Y-95500000D01*
D26*
X131290000Y-91880000D02*
X132790000Y-91880000D01*
D25*
X132790000Y-91880000D02*
X132800000Y-91890000D01*
D26*
X117400000Y-88900000D02*
X118300000Y-88900000D01*
D25*
%TO.N,/PA24*%
X122730000Y-85700000D02*
X121435000Y-86995000D01*
X125200000Y-86600000D02*
X124300000Y-85700000D01*
X124300000Y-85700000D02*
X122730000Y-85700000D01*
X125200000Y-90800000D02*
X125200000Y-86600000D01*
X124300000Y-91700000D02*
X125200000Y-90800000D01*
X124300000Y-94800000D02*
X124300000Y-91700000D01*
X124575000Y-95075000D02*
X124300000Y-94800000D01*
X126150000Y-95075000D02*
X124575000Y-95075000D01*
%TO.N,/SWCLK*%
X122975000Y-95775000D02*
X122700000Y-95500000D01*
X126150000Y-95775000D02*
X122975000Y-95775000D01*
%TO.N,/SWDIO*%
X121800000Y-96100000D02*
X121825000Y-96125000D01*
X124025000Y-96125000D02*
X121825000Y-96125000D01*
%TO.N,GND*%
X129020000Y-96480000D02*
X129020000Y-96920000D01*
%TO.N,+3V3*%
X130470000Y-95520000D02*
X130500000Y-95550000D01*
D26*
X129020000Y-95520000D02*
X130470000Y-95520000D01*
D25*
%TO.N,GND*%
X128280000Y-96480000D02*
X129020000Y-96480000D01*
X127925000Y-96125000D02*
X128280000Y-96480000D01*
X126500000Y-96125000D02*
X127925000Y-96125000D01*
%TO.N,+3V3*%
X128480000Y-95520000D02*
X129020000Y-95520000D01*
X126500000Y-95775000D02*
X128225000Y-95775000D01*
X128225000Y-95775000D02*
X128480000Y-95520000D01*
%TO.N,/SWDIO*%
X126150000Y-96125000D02*
X124025000Y-96125000D01*
D27*
%TO.N,Net-(D1-A)*%
X114800000Y-88900000D02*
X116380000Y-88900000D01*
%TD*%
%TA.AperFunction,Conductor*%
%TO.N,GND*%
G36*
X132162559Y-92702174D02*
G01*
X132257826Y-92797441D01*
X132279500Y-92849767D01*
X132279500Y-93084314D01*
X132285931Y-93133171D01*
X132285932Y-93133173D01*
X132335935Y-93240404D01*
X132419596Y-93324065D01*
X132526827Y-93374068D01*
X132575684Y-93380500D01*
X132575686Y-93380500D01*
X133024314Y-93380500D01*
X133024316Y-93380500D01*
X133073173Y-93374068D01*
X133180404Y-93324065D01*
X133218430Y-93286038D01*
X133270752Y-93264365D01*
X133313710Y-93280383D01*
X133314419Y-93279281D01*
X133318871Y-93282142D01*
X133318872Y-93282143D01*
X133429955Y-93353531D01*
X133462256Y-93400053D01*
X133452200Y-93455790D01*
X133442273Y-93468109D01*
X132707559Y-94202826D01*
X132655233Y-94224500D01*
X132223147Y-94224500D01*
X132170821Y-94202826D01*
X132149147Y-94150500D01*
X132149900Y-94139968D01*
X132155647Y-94100000D01*
X132135165Y-93957543D01*
X132075377Y-93826627D01*
X131981128Y-93717857D01*
X131924182Y-93681260D01*
X131860054Y-93640047D01*
X131860050Y-93640046D01*
X131721964Y-93599500D01*
X131721961Y-93599500D01*
X131639500Y-93599500D01*
X131587174Y-93577826D01*
X131565500Y-93525500D01*
X131565500Y-93410125D01*
X131587174Y-93357799D01*
X131608225Y-93343058D01*
X131670404Y-93314065D01*
X131754065Y-93230404D01*
X131804068Y-93123173D01*
X131810500Y-93074316D01*
X131810500Y-92754500D01*
X131832174Y-92702174D01*
X131884500Y-92680500D01*
X132110233Y-92680500D01*
X132162559Y-92702174D01*
G37*
%TD.AperFunction*%
%TA.AperFunction,Conductor*%
G36*
X124897445Y-87643556D02*
G01*
X124924144Y-87693505D01*
X124924500Y-87700759D01*
X124924500Y-90655232D01*
X124902826Y-90707558D01*
X124143942Y-91466443D01*
X124066442Y-91543943D01*
X124024500Y-91645200D01*
X124024500Y-91656233D01*
X124002826Y-91708559D01*
X123950500Y-91730233D01*
X123898174Y-91708559D01*
X122797174Y-90607559D01*
X122775500Y-90555233D01*
X122775500Y-88614766D01*
X122797173Y-88562441D01*
X123413854Y-87945759D01*
X123466179Y-87924086D01*
X123501060Y-87932823D01*
X123571046Y-87970232D01*
X123769066Y-88030300D01*
X123975000Y-88050583D01*
X124180934Y-88030300D01*
X124378954Y-87970232D01*
X124561450Y-87872685D01*
X124721410Y-87741410D01*
X124793298Y-87653813D01*
X124843246Y-87627115D01*
X124897445Y-87643556D01*
G37*
%TD.AperFunction*%
%TA.AperFunction,Conductor*%
G36*
X137002065Y-80200615D02*
G01*
X137309309Y-80217870D01*
X137317543Y-80218799D01*
X137618855Y-80269993D01*
X137626923Y-80271834D01*
X137920633Y-80356451D01*
X137928447Y-80359185D01*
X138210817Y-80476147D01*
X138218293Y-80479747D01*
X138485784Y-80627584D01*
X138492808Y-80631997D01*
X138742086Y-80808869D01*
X138748554Y-80814028D01*
X138901670Y-80950862D01*
X138976446Y-81017686D01*
X138982313Y-81023553D01*
X139065033Y-81116116D01*
X139185969Y-81251443D01*
X139191132Y-81257915D01*
X139319554Y-81438909D01*
X139368000Y-81507188D01*
X139372415Y-81514215D01*
X139520252Y-81781706D01*
X139523852Y-81789182D01*
X139640810Y-82071543D01*
X139643551Y-82079376D01*
X139728162Y-82373065D01*
X139730008Y-82381156D01*
X139781199Y-82682450D01*
X139782129Y-82690696D01*
X139799384Y-82997934D01*
X139799500Y-83002083D01*
X139799500Y-91419900D01*
X139777826Y-91472226D01*
X139725500Y-91493900D01*
X139681558Y-91479441D01*
X139637880Y-91447205D01*
X139509704Y-91402355D01*
X139509705Y-91402355D01*
X139509700Y-91402354D01*
X139509699Y-91402354D01*
X139479266Y-91399500D01*
X138070734Y-91399500D01*
X138040301Y-91402354D01*
X138040299Y-91402354D01*
X138040295Y-91402355D01*
X137912118Y-91447206D01*
X137912116Y-91447207D01*
X137802853Y-91527846D01*
X137802846Y-91527853D01*
X137722207Y-91637116D01*
X137722206Y-91637118D01*
X137677355Y-91765295D01*
X137677354Y-91765299D01*
X137677354Y-91765301D01*
X137674500Y-91795734D01*
X137674500Y-92604266D01*
X137677354Y-92634699D01*
X137677354Y-92634701D01*
X137677355Y-92634704D01*
X137722206Y-92762881D01*
X137722207Y-92762883D01*
X137802846Y-92872146D01*
X137802853Y-92872153D01*
X137912116Y-92952792D01*
X137912118Y-92952793D01*
X138040295Y-92997644D01*
X138040301Y-92997646D01*
X138070734Y-93000500D01*
X138070741Y-93000500D01*
X139479258Y-93000500D01*
X139479266Y-93000500D01*
X139509699Y-92997646D01*
X139568002Y-92977244D01*
X139637880Y-92952794D01*
X139637880Y-92952793D01*
X139637882Y-92952793D01*
X139681558Y-92920558D01*
X139736529Y-92906925D01*
X139785040Y-92936156D01*
X139799500Y-92980099D01*
X139799500Y-97019900D01*
X139777826Y-97072226D01*
X139725500Y-97093900D01*
X139681558Y-97079441D01*
X139637880Y-97047205D01*
X139509704Y-97002355D01*
X139509705Y-97002355D01*
X139509700Y-97002354D01*
X139509699Y-97002354D01*
X139479266Y-96999500D01*
X138070734Y-96999500D01*
X138040301Y-97002354D01*
X138040299Y-97002354D01*
X138040295Y-97002355D01*
X137912118Y-97047206D01*
X137912116Y-97047207D01*
X137802853Y-97127846D01*
X137802846Y-97127853D01*
X137722207Y-97237116D01*
X137722206Y-97237118D01*
X137677355Y-97365295D01*
X137677354Y-97365299D01*
X137677354Y-97365301D01*
X137674500Y-97395734D01*
X137674500Y-98204266D01*
X137677354Y-98234699D01*
X137677354Y-98234701D01*
X137677355Y-98234704D01*
X137722206Y-98362881D01*
X137722207Y-98362883D01*
X137802846Y-98472146D01*
X137802853Y-98472153D01*
X137912116Y-98552792D01*
X137912118Y-98552793D01*
X138040295Y-98597644D01*
X138040301Y-98597646D01*
X138070734Y-98600500D01*
X138070741Y-98600500D01*
X139479258Y-98600500D01*
X139479266Y-98600500D01*
X139509699Y-98597646D01*
X139568002Y-98577244D01*
X139637880Y-98552794D01*
X139637880Y-98552793D01*
X139637882Y-98552793D01*
X139681558Y-98520558D01*
X139736529Y-98506925D01*
X139785040Y-98536156D01*
X139799500Y-98580099D01*
X139799500Y-106997916D01*
X139799384Y-107002065D01*
X139782129Y-107309303D01*
X139781199Y-107317549D01*
X139730008Y-107618843D01*
X139728162Y-107626934D01*
X139643551Y-107920623D01*
X139640810Y-107928456D01*
X139523852Y-108210817D01*
X139520252Y-108218293D01*
X139372415Y-108485784D01*
X139368000Y-108492811D01*
X139191138Y-108742076D01*
X139185963Y-108748564D01*
X138982313Y-108976446D01*
X138976446Y-108982313D01*
X138748564Y-109185963D01*
X138742076Y-109191138D01*
X138492811Y-109368000D01*
X138485784Y-109372415D01*
X138218293Y-109520252D01*
X138210817Y-109523852D01*
X137928456Y-109640810D01*
X137920623Y-109643551D01*
X137626934Y-109728162D01*
X137618843Y-109730008D01*
X137317549Y-109781199D01*
X137309303Y-109782129D01*
X137002066Y-109799384D01*
X136997917Y-109799500D01*
X113002083Y-109799500D01*
X112997934Y-109799384D01*
X112690696Y-109782129D01*
X112682450Y-109781199D01*
X112381156Y-109730008D01*
X112373065Y-109728162D01*
X112079376Y-109643551D01*
X112071543Y-109640810D01*
X111789182Y-109523852D01*
X111781706Y-109520252D01*
X111514215Y-109372415D01*
X111507188Y-109368000D01*
X111363715Y-109266201D01*
X111257915Y-109191132D01*
X111251443Y-109185969D01*
X111062260Y-109016904D01*
X111023553Y-108982313D01*
X111017686Y-108976446D01*
X110950862Y-108901670D01*
X110814028Y-108748554D01*
X110808869Y-108742086D01*
X110631997Y-108492808D01*
X110627584Y-108485784D01*
X110610565Y-108454991D01*
X110479747Y-108218293D01*
X110476147Y-108210817D01*
X110450347Y-108148531D01*
X110359185Y-107928447D01*
X110356451Y-107920633D01*
X110271834Y-107626923D01*
X110269993Y-107618855D01*
X110218799Y-107317543D01*
X110217870Y-107309303D01*
X110207574Y-107125963D01*
X111399500Y-107125963D01*
X111438909Y-107374782D01*
X111438912Y-107374795D01*
X111516756Y-107614373D01*
X111631129Y-107838845D01*
X111779203Y-108042651D01*
X111779207Y-108042656D01*
X111957344Y-108220793D01*
X111957347Y-108220795D01*
X111957348Y-108220796D01*
X112161154Y-108368870D01*
X112269345Y-108423995D01*
X112385621Y-108483241D01*
X112385623Y-108483241D01*
X112385626Y-108483243D01*
X112625204Y-108561087D01*
X112625210Y-108561088D01*
X112625215Y-108561090D01*
X112749626Y-108580795D01*
X112874036Y-108600500D01*
X112874038Y-108600500D01*
X113125964Y-108600500D01*
X113225491Y-108584736D01*
X113374785Y-108561090D01*
X113374792Y-108561087D01*
X113374795Y-108561087D01*
X113614373Y-108483243D01*
X113614373Y-108483242D01*
X113614379Y-108483241D01*
X113838845Y-108368870D01*
X114042656Y-108220793D01*
X114220793Y-108042656D01*
X114368870Y-107838845D01*
X114483241Y-107614379D01*
X114483243Y-107614373D01*
X114561087Y-107374795D01*
X114561087Y-107374792D01*
X114561090Y-107374785D01*
X114600500Y-107125963D01*
X135399500Y-107125963D01*
X135438909Y-107374782D01*
X135438912Y-107374795D01*
X135516756Y-107614373D01*
X135631129Y-107838845D01*
X135779203Y-108042651D01*
X135779207Y-108042656D01*
X135957344Y-108220793D01*
X135957347Y-108220795D01*
X135957348Y-108220796D01*
X136161154Y-108368870D01*
X136269345Y-108423995D01*
X136385621Y-108483241D01*
X136385623Y-108483241D01*
X136385626Y-108483243D01*
X136625204Y-108561087D01*
X136625210Y-108561088D01*
X136625215Y-108561090D01*
X136749626Y-108580795D01*
X136874036Y-108600500D01*
X136874038Y-108600500D01*
X137125964Y-108600500D01*
X137225491Y-108584736D01*
X137374785Y-108561090D01*
X137374792Y-108561087D01*
X137374795Y-108561087D01*
X137614373Y-108483243D01*
X137614373Y-108483242D01*
X137614379Y-108483241D01*
X137838845Y-108368870D01*
X138042656Y-108220793D01*
X138220793Y-108042656D01*
X138368870Y-107838845D01*
X138483241Y-107614379D01*
X138483243Y-107614373D01*
X138561087Y-107374795D01*
X138561087Y-107374792D01*
X138561090Y-107374785D01*
X138600500Y-107125962D01*
X138600500Y-106874038D01*
X138561090Y-106625215D01*
X138561088Y-106625210D01*
X138561087Y-106625204D01*
X138483243Y-106385626D01*
X138483241Y-106385623D01*
X138483241Y-106385621D01*
X138423995Y-106269345D01*
X138368870Y-106161154D01*
X138220796Y-105957348D01*
X138220795Y-105957347D01*
X138220793Y-105957344D01*
X138042656Y-105779207D01*
X138042653Y-105779204D01*
X138042651Y-105779203D01*
X137838845Y-105631129D01*
X137614373Y-105516756D01*
X137374795Y-105438912D01*
X137374782Y-105438909D01*
X137125964Y-105399500D01*
X137125962Y-105399500D01*
X136874038Y-105399500D01*
X136874036Y-105399500D01*
X136625217Y-105438909D01*
X136625204Y-105438912D01*
X136385626Y-105516756D01*
X136161154Y-105631129D01*
X135957348Y-105779203D01*
X135779203Y-105957348D01*
X135631129Y-106161154D01*
X135516756Y-106385626D01*
X135438912Y-106625204D01*
X135438909Y-106625217D01*
X135399500Y-106874036D01*
X135399500Y-107125963D01*
X114600500Y-107125963D01*
X114600500Y-107125962D01*
X114600500Y-106874038D01*
X114561090Y-106625215D01*
X114561088Y-106625210D01*
X114561087Y-106625204D01*
X114483243Y-106385626D01*
X114483241Y-106385623D01*
X114483241Y-106385621D01*
X114423995Y-106269345D01*
X114368870Y-106161154D01*
X114220796Y-105957348D01*
X114220795Y-105957347D01*
X114220793Y-105957344D01*
X114042656Y-105779207D01*
X114042653Y-105779204D01*
X114042651Y-105779203D01*
X113838845Y-105631129D01*
X113614373Y-105516756D01*
X113374795Y-105438912D01*
X113374782Y-105438909D01*
X113125964Y-105399500D01*
X113125962Y-105399500D01*
X112874038Y-105399500D01*
X112874036Y-105399500D01*
X112625217Y-105438909D01*
X112625204Y-105438912D01*
X112385626Y-105516756D01*
X112161154Y-105631129D01*
X111957348Y-105779203D01*
X111779203Y-105957348D01*
X111631129Y-106161154D01*
X111516756Y-106385626D01*
X111438912Y-106625204D01*
X111438909Y-106625217D01*
X111399500Y-106874036D01*
X111399500Y-107125963D01*
X110207574Y-107125963D01*
X110200616Y-107002065D01*
X110200500Y-106997916D01*
X110200500Y-103150000D01*
X117762501Y-103150000D01*
X117762501Y-103258451D01*
X117778261Y-103357969D01*
X117778262Y-103357971D01*
X117839382Y-103477923D01*
X117934578Y-103573119D01*
X118054530Y-103634237D01*
X118054531Y-103634238D01*
X118154048Y-103649999D01*
X118287500Y-103649999D01*
X118287500Y-103150000D01*
X118587500Y-103150000D01*
X118587500Y-103649999D01*
X118720951Y-103649999D01*
X118820469Y-103634238D01*
X118820471Y-103634237D01*
X118940423Y-103573117D01*
X119035619Y-103477921D01*
X119096737Y-103357969D01*
X119096738Y-103357968D01*
X119112500Y-103258451D01*
X119112500Y-103150000D01*
X118587500Y-103150000D01*
X118287500Y-103150000D01*
X117762501Y-103150000D01*
X110200500Y-103150000D01*
X110200500Y-102850000D01*
X117762500Y-102850000D01*
X118287500Y-102850000D01*
X118287500Y-102350000D01*
X118587500Y-102350000D01*
X118587500Y-102850000D01*
X119112499Y-102850000D01*
X119112499Y-102741548D01*
X119096738Y-102642030D01*
X119096737Y-102642028D01*
X119035617Y-102522076D01*
X118940421Y-102426880D01*
X118820469Y-102365762D01*
X118820468Y-102365761D01*
X118720952Y-102350000D01*
X118587500Y-102350000D01*
X118287500Y-102350000D01*
X118154048Y-102350000D01*
X118054530Y-102365761D01*
X118054528Y-102365762D01*
X117934576Y-102426882D01*
X117839380Y-102522078D01*
X117778262Y-102642030D01*
X117778261Y-102642031D01*
X117762500Y-102741548D01*
X117762500Y-102850000D01*
X110200500Y-102850000D01*
X110200500Y-99959308D01*
X111849500Y-99959308D01*
X111873712Y-100049672D01*
X111880200Y-100073883D01*
X111880203Y-100073891D01*
X111939508Y-100176610D01*
X111939509Y-100176611D01*
X111939511Y-100176614D01*
X113573386Y-101810489D01*
X113676113Y-101869799D01*
X113676115Y-101869799D01*
X113676116Y-101869800D01*
X113684184Y-101871961D01*
X113700326Y-101876286D01*
X113772618Y-101895657D01*
X113790690Y-101900500D01*
X113790691Y-101900500D01*
X117781127Y-101900500D01*
X117833453Y-101922174D01*
X117836539Y-101925787D01*
X117838972Y-101928220D01*
X117934280Y-102023528D01*
X118054374Y-102084719D01*
X118154011Y-102100500D01*
X118154012Y-102100500D01*
X118720989Y-102100500D01*
X118770807Y-102092609D01*
X118820626Y-102084719D01*
X118940720Y-102023528D01*
X119036028Y-101928220D01*
X119036028Y-101928219D01*
X119040146Y-101924102D01*
X119042091Y-101926047D01*
X119082302Y-101901410D01*
X119093873Y-101900500D01*
X119963373Y-101900500D01*
X120015699Y-101922174D01*
X120037373Y-101974500D01*
X120015699Y-102026826D01*
X119998714Y-102043810D01*
X119947412Y-102148750D01*
X119937500Y-102216776D01*
X119937500Y-102250000D01*
X120876000Y-102250000D01*
X120928326Y-102271674D01*
X120950000Y-102324000D01*
X120950000Y-102476000D01*
X120928326Y-102528326D01*
X120876000Y-102550000D01*
X119937501Y-102550000D01*
X119937501Y-102583224D01*
X119947412Y-102651250D01*
X119998713Y-102756188D01*
X120064846Y-102822321D01*
X120086520Y-102874647D01*
X120064846Y-102926973D01*
X119998301Y-102993517D01*
X119946927Y-103098605D01*
X119946927Y-103098606D01*
X119937000Y-103166735D01*
X119937000Y-103533264D01*
X119946927Y-103601393D01*
X119946927Y-103601394D01*
X119998301Y-103706482D01*
X119998302Y-103706483D01*
X120081017Y-103789198D01*
X120186107Y-103840573D01*
X120254240Y-103850500D01*
X120254246Y-103850500D01*
X121345754Y-103850500D01*
X121345760Y-103850500D01*
X121413893Y-103840573D01*
X121518983Y-103789198D01*
X121601698Y-103706483D01*
X121608778Y-103691999D01*
X121651230Y-103654510D01*
X121675259Y-103650500D01*
X121789564Y-103650500D01*
X121789564Y-103650499D01*
X121865989Y-103630021D01*
X121934511Y-103590460D01*
X121990460Y-103534511D01*
X122085674Y-103439297D01*
X122138000Y-103417623D01*
X122190326Y-103439297D01*
X122212000Y-103491623D01*
X122212000Y-103533264D01*
X122221927Y-103601393D01*
X122221927Y-103601394D01*
X122273301Y-103706482D01*
X122273302Y-103706483D01*
X122356017Y-103789198D01*
X122461107Y-103840573D01*
X122529240Y-103850500D01*
X122529246Y-103850500D01*
X123620754Y-103850500D01*
X123620760Y-103850500D01*
X123688893Y-103840573D01*
X123793983Y-103789198D01*
X123876698Y-103706483D01*
X123928073Y-103601393D01*
X123938000Y-103533260D01*
X123938000Y-103166740D01*
X123931918Y-103125000D01*
X124762501Y-103125000D01*
X124762501Y-103233451D01*
X124778261Y-103332969D01*
X124778262Y-103332971D01*
X124839382Y-103452923D01*
X124934578Y-103548119D01*
X125054530Y-103609237D01*
X125054531Y-103609238D01*
X125154048Y-103624999D01*
X125287500Y-103624999D01*
X125287500Y-103125000D01*
X125587500Y-103125000D01*
X125587500Y-103624999D01*
X125720951Y-103624999D01*
X125820469Y-103609238D01*
X125820471Y-103609237D01*
X125940423Y-103548117D01*
X126035619Y-103452921D01*
X126096737Y-103332969D01*
X126096738Y-103332968D01*
X126112500Y-103233451D01*
X126112500Y-103125000D01*
X125587500Y-103125000D01*
X125287500Y-103125000D01*
X124762501Y-103125000D01*
X123931918Y-103125000D01*
X123928073Y-103098607D01*
X123876698Y-102993517D01*
X123793983Y-102910802D01*
X123793982Y-102910801D01*
X123688894Y-102859427D01*
X123620764Y-102849500D01*
X123620760Y-102849500D01*
X122529240Y-102849500D01*
X122529235Y-102849500D01*
X122461106Y-102859427D01*
X122461105Y-102859427D01*
X122356017Y-102910801D01*
X122326826Y-102939993D01*
X122274500Y-102961667D01*
X122222174Y-102939993D01*
X122200500Y-102887667D01*
X122200500Y-102825000D01*
X124762500Y-102825000D01*
X125287500Y-102825000D01*
X125287500Y-102325000D01*
X125587500Y-102325000D01*
X125587500Y-102825000D01*
X126112499Y-102825000D01*
X126112499Y-102716548D01*
X126096738Y-102617030D01*
X126096737Y-102617028D01*
X126035617Y-102497076D01*
X125940421Y-102401880D01*
X125820469Y-102340762D01*
X125820468Y-102340761D01*
X125720952Y-102325000D01*
X125587500Y-102325000D01*
X125287500Y-102325000D01*
X125154048Y-102325000D01*
X125054530Y-102340761D01*
X125054528Y-102340762D01*
X124934576Y-102401882D01*
X124839380Y-102497078D01*
X124778262Y-102617030D01*
X124778261Y-102617031D01*
X124762500Y-102716548D01*
X124762500Y-102825000D01*
X122200500Y-102825000D01*
X122200500Y-101912333D01*
X122222174Y-101860007D01*
X122274500Y-101838333D01*
X122326826Y-101860007D01*
X122356017Y-101889198D01*
X122461107Y-101940573D01*
X122529240Y-101950500D01*
X122529246Y-101950500D01*
X123620754Y-101950500D01*
X123620760Y-101950500D01*
X123688893Y-101940573D01*
X123793983Y-101889198D01*
X123811007Y-101872174D01*
X123863333Y-101850500D01*
X124766762Y-101850500D01*
X124819088Y-101872174D01*
X124832696Y-101890904D01*
X124838970Y-101903218D01*
X124838971Y-101903219D01*
X124838972Y-101903220D01*
X124934280Y-101998528D01*
X125054374Y-102059719D01*
X125154011Y-102075500D01*
X125154012Y-102075500D01*
X125720989Y-102075500D01*
X125770807Y-102067609D01*
X125820626Y-102059719D01*
X125940720Y-101998528D01*
X126036028Y-101903220D01*
X126097219Y-101783126D01*
X126113000Y-101683488D01*
X126113000Y-101500000D01*
X129294353Y-101500000D01*
X129314834Y-101642454D01*
X129314834Y-101642455D01*
X129314835Y-101642457D01*
X129352219Y-101724316D01*
X129374623Y-101773373D01*
X129468868Y-101882139D01*
X129468869Y-101882140D01*
X129468872Y-101882143D01*
X129589947Y-101959953D01*
X129696403Y-101991211D01*
X129728035Y-102000499D01*
X129728037Y-102000500D01*
X129728039Y-102000500D01*
X129871963Y-102000500D01*
X129871964Y-102000499D01*
X129878677Y-101998528D01*
X130010053Y-101959953D01*
X130131128Y-101882143D01*
X130201404Y-101801039D01*
X130252050Y-101775689D01*
X130257329Y-101775500D01*
X130469874Y-101775500D01*
X130522200Y-101797174D01*
X130536941Y-101818227D01*
X130565933Y-101880401D01*
X130565934Y-101880403D01*
X130565935Y-101880404D01*
X130649596Y-101964065D01*
X130756827Y-102014068D01*
X130805684Y-102020500D01*
X130805686Y-102020500D01*
X131154314Y-102020500D01*
X131154316Y-102020500D01*
X131203173Y-102014068D01*
X131310404Y-101964065D01*
X131394065Y-101880404D01*
X131422933Y-101818495D01*
X131464690Y-101780232D01*
X131521273Y-101782702D01*
X131557067Y-101818496D01*
X131585933Y-101880402D01*
X131585935Y-101880404D01*
X131669596Y-101964065D01*
X131776827Y-102014068D01*
X131825684Y-102020500D01*
X131825686Y-102020500D01*
X132174314Y-102020500D01*
X132174316Y-102020500D01*
X132223173Y-102014068D01*
X132330404Y-101964065D01*
X132414065Y-101880404D01*
X132436560Y-101832162D01*
X132443059Y-101818227D01*
X132484816Y-101779963D01*
X132510126Y-101775500D01*
X133009121Y-101775500D01*
X133061447Y-101797174D01*
X133082209Y-101837923D01*
X133088938Y-101880403D01*
X133090049Y-101887420D01*
X133150340Y-102005749D01*
X133244250Y-102099659D01*
X133303414Y-102129804D01*
X133362579Y-102159950D01*
X133362579Y-102159951D01*
X133460753Y-102175500D01*
X133460754Y-102175500D01*
X133964247Y-102175500D01*
X134062420Y-102159951D01*
X134180751Y-102099658D01*
X134274658Y-102005751D01*
X134334951Y-101887420D01*
X134350500Y-101789246D01*
X134350500Y-101650000D01*
X134650001Y-101650000D01*
X134650001Y-101789206D01*
X134665531Y-101887264D01*
X134725751Y-102005453D01*
X134819546Y-102099248D01*
X134937735Y-102159469D01*
X135035792Y-102174999D01*
X135137500Y-102174999D01*
X135137500Y-101650000D01*
X135437500Y-101650000D01*
X135437500Y-102174999D01*
X135539207Y-102174999D01*
X135637264Y-102159468D01*
X135755453Y-102099248D01*
X135849248Y-102005453D01*
X135909468Y-101887264D01*
X135925000Y-101789207D01*
X135925000Y-101650000D01*
X135437500Y-101650000D01*
X135137500Y-101650000D01*
X134650001Y-101650000D01*
X134350500Y-101650000D01*
X134350500Y-101350000D01*
X134650000Y-101350000D01*
X135137500Y-101350000D01*
X135137500Y-100825000D01*
X135437500Y-100825000D01*
X135437500Y-101350000D01*
X135924999Y-101350000D01*
X135924999Y-101210793D01*
X135909468Y-101112735D01*
X135849248Y-100994546D01*
X135755453Y-100900751D01*
X135637264Y-100840531D01*
X135539208Y-100825000D01*
X135437500Y-100825000D01*
X135137500Y-100825000D01*
X135035793Y-100825000D01*
X134937735Y-100840531D01*
X134819546Y-100900751D01*
X134725751Y-100994546D01*
X134665531Y-101112735D01*
X134650000Y-101210792D01*
X134650000Y-101350000D01*
X134350500Y-101350000D01*
X134350500Y-101210754D01*
X134334951Y-101112580D01*
X134302810Y-101049500D01*
X134274659Y-100994250D01*
X134180749Y-100900340D01*
X134062420Y-100840049D01*
X134062420Y-100840048D01*
X133964247Y-100824500D01*
X133964246Y-100824500D01*
X133460754Y-100824500D01*
X133460753Y-100824500D01*
X133362579Y-100840048D01*
X133362579Y-100840049D01*
X133244250Y-100900340D01*
X133150340Y-100994250D01*
X133090049Y-101112579D01*
X133082210Y-101162076D01*
X133052618Y-101210367D01*
X133009121Y-101224500D01*
X132510126Y-101224500D01*
X132457800Y-101202826D01*
X132443059Y-101181773D01*
X132414066Y-101119598D01*
X132414065Y-101119596D01*
X132330404Y-101035935D01*
X132276504Y-101010801D01*
X132223173Y-100985932D01*
X132223171Y-100985931D01*
X132187178Y-100981193D01*
X132174316Y-100979500D01*
X131825684Y-100979500D01*
X131814318Y-100980996D01*
X131776828Y-100985931D01*
X131669595Y-101035935D01*
X131585935Y-101119595D01*
X131557067Y-101181504D01*
X131515309Y-101219767D01*
X131458726Y-101217297D01*
X131422933Y-101181504D01*
X131415942Y-101166511D01*
X131394065Y-101119596D01*
X131310404Y-101035935D01*
X131203173Y-100985932D01*
X131203171Y-100985931D01*
X131167178Y-100981193D01*
X131154316Y-100979500D01*
X130805684Y-100979500D01*
X130794318Y-100980996D01*
X130756828Y-100985931D01*
X130649595Y-101035935D01*
X130565934Y-101119596D01*
X130565933Y-101119598D01*
X130536941Y-101181773D01*
X130495184Y-101220037D01*
X130469874Y-101224500D01*
X130257329Y-101224500D01*
X130205003Y-101202826D01*
X130201412Y-101198969D01*
X130131128Y-101117857D01*
X130051797Y-101066874D01*
X130010054Y-101040047D01*
X130010050Y-101040046D01*
X129871964Y-100999500D01*
X129871961Y-100999500D01*
X129728039Y-100999500D01*
X129728036Y-100999500D01*
X129589949Y-101040046D01*
X129589945Y-101040047D01*
X129468875Y-101117855D01*
X129468868Y-101117860D01*
X129374623Y-101226626D01*
X129314834Y-101357545D01*
X129294353Y-101500000D01*
X126113000Y-101500000D01*
X126113000Y-101166512D01*
X126112297Y-101162076D01*
X126097219Y-101066874D01*
X126097218Y-101066873D01*
X126081454Y-101035935D01*
X126036028Y-100946780D01*
X125940720Y-100851472D01*
X125878404Y-100819720D01*
X125841622Y-100776653D01*
X125838000Y-100753786D01*
X125838000Y-100592182D01*
X125856074Y-100543722D01*
X125862877Y-100535873D01*
X125922665Y-100404957D01*
X125943147Y-100262500D01*
X125922665Y-100120043D01*
X125862877Y-99989127D01*
X125862875Y-99989125D01*
X125862875Y-99989124D01*
X125862873Y-99989122D01*
X125856075Y-99981276D01*
X125838000Y-99932816D01*
X125838000Y-99524771D01*
X125837999Y-99524770D01*
X125810708Y-99422917D01*
X125810707Y-99422913D01*
X125757980Y-99331587D01*
X125683413Y-99257020D01*
X125475913Y-99049520D01*
X124505913Y-98079520D01*
X124505910Y-98079518D01*
X124505909Y-98079517D01*
X124414592Y-98026795D01*
X124414588Y-98026793D01*
X124381249Y-98017860D01*
X124312727Y-97999500D01*
X124312726Y-97999500D01*
X120684292Y-97999500D01*
X120644285Y-97987753D01*
X120570054Y-97940047D01*
X120570050Y-97940046D01*
X120431964Y-97899500D01*
X120431961Y-97899500D01*
X120288039Y-97899500D01*
X120288036Y-97899500D01*
X120149949Y-97940046D01*
X120149945Y-97940047D01*
X120028875Y-98017855D01*
X120028868Y-98017860D01*
X119934623Y-98126626D01*
X119874834Y-98257545D01*
X119854353Y-98400000D01*
X119874834Y-98542454D01*
X119874834Y-98542455D01*
X119874835Y-98542457D01*
X119900039Y-98597646D01*
X119934623Y-98673373D01*
X120028868Y-98782139D01*
X120028869Y-98782140D01*
X120028872Y-98782143D01*
X120149947Y-98859953D01*
X120256403Y-98891211D01*
X120288035Y-98900499D01*
X120288037Y-98900500D01*
X120288039Y-98900500D01*
X120431963Y-98900500D01*
X120431964Y-98900499D01*
X120570053Y-98859953D01*
X120644285Y-98812246D01*
X120684292Y-98800500D01*
X124063455Y-98800500D01*
X124115781Y-98822174D01*
X125015326Y-99721719D01*
X125037000Y-99774045D01*
X125037000Y-99932816D01*
X125018925Y-99981276D01*
X125012126Y-99989122D01*
X125012124Y-99989124D01*
X124952334Y-100120045D01*
X124931853Y-100262500D01*
X124952334Y-100404954D01*
X124952334Y-100404955D01*
X124952335Y-100404957D01*
X125012123Y-100535873D01*
X125018925Y-100543722D01*
X125037000Y-100592182D01*
X125037000Y-100753786D01*
X125015326Y-100806112D01*
X124996596Y-100819720D01*
X124934279Y-100851472D01*
X124838970Y-100946781D01*
X124807220Y-101009095D01*
X124764153Y-101045878D01*
X124741286Y-101049500D01*
X123863333Y-101049500D01*
X123811007Y-101027826D01*
X123793982Y-101010801D01*
X123688894Y-100959427D01*
X123620764Y-100949500D01*
X123620760Y-100949500D01*
X122529240Y-100949500D01*
X122529235Y-100949500D01*
X122461106Y-100959427D01*
X122461105Y-100959427D01*
X122356017Y-101010801D01*
X122273301Y-101093517D01*
X122221927Y-101198605D01*
X122221927Y-101198606D01*
X122212000Y-101266735D01*
X122212000Y-101308377D01*
X122190326Y-101360703D01*
X122138000Y-101382377D01*
X122085674Y-101360703D01*
X121934510Y-101209539D01*
X121903285Y-101191512D01*
X121865990Y-101169979D01*
X121865985Y-101169977D01*
X121789564Y-101149500D01*
X121789562Y-101149500D01*
X121675259Y-101149500D01*
X121622933Y-101127826D01*
X121608779Y-101108002D01*
X121601698Y-101093517D01*
X121518983Y-101010802D01*
X121518982Y-101010801D01*
X121413894Y-100959427D01*
X121345764Y-100949500D01*
X121345760Y-100949500D01*
X120254240Y-100949500D01*
X120254235Y-100949500D01*
X120186106Y-100959427D01*
X120186105Y-100959427D01*
X120119516Y-100991981D01*
X120087016Y-100999500D01*
X119093873Y-100999500D01*
X119041547Y-100977826D01*
X119038460Y-100974212D01*
X118940719Y-100876471D01*
X118820626Y-100815281D01*
X118820625Y-100815280D01*
X118720989Y-100799500D01*
X118720988Y-100799500D01*
X118154012Y-100799500D01*
X118154011Y-100799500D01*
X118054374Y-100815280D01*
X118054373Y-100815281D01*
X117934280Y-100876471D01*
X117934279Y-100876472D01*
X117834854Y-100975898D01*
X117832908Y-100973952D01*
X117792698Y-100998590D01*
X117781127Y-100999500D01*
X114067255Y-100999500D01*
X114014929Y-100977826D01*
X112772174Y-99735071D01*
X112750500Y-99682745D01*
X112750500Y-96750003D01*
X113395202Y-96750003D01*
X113414362Y-96981221D01*
X113471320Y-97206145D01*
X113564515Y-97418608D01*
X113691414Y-97612842D01*
X113707524Y-97630341D01*
X114283123Y-97054742D01*
X114319881Y-97118408D01*
X114431592Y-97230119D01*
X114495255Y-97266875D01*
X113921675Y-97840455D01*
X114031645Y-97926048D01*
X114235697Y-98036476D01*
X114455145Y-98111812D01*
X114683990Y-98149999D01*
X114683993Y-98150000D01*
X114916007Y-98150000D01*
X114916009Y-98149999D01*
X115144854Y-98111812D01*
X115364302Y-98036476D01*
X115568353Y-97926048D01*
X115678322Y-97840455D01*
X115678323Y-97840455D01*
X115104743Y-97266875D01*
X115168408Y-97230119D01*
X115280119Y-97118408D01*
X115316876Y-97054743D01*
X115892474Y-97630341D01*
X115908585Y-97612841D01*
X116035484Y-97418608D01*
X116128679Y-97206145D01*
X116185637Y-96981221D01*
X116204798Y-96750003D01*
X116204798Y-96749996D01*
X116185637Y-96518778D01*
X116128679Y-96293854D01*
X116035484Y-96081391D01*
X115908584Y-95887157D01*
X115908585Y-95887157D01*
X115892473Y-95869656D01*
X115316875Y-96445255D01*
X115280119Y-96381592D01*
X115168408Y-96269881D01*
X115104742Y-96233123D01*
X115678323Y-95659543D01*
X115568354Y-95573952D01*
X115568344Y-95573946D01*
X115364302Y-95463523D01*
X115144854Y-95388187D01*
X114916009Y-95350000D01*
X114683990Y-95350000D01*
X114455145Y-95388187D01*
X114235697Y-95463523D01*
X114031655Y-95573946D01*
X114031645Y-95573952D01*
X113921675Y-95659543D01*
X114495256Y-96233124D01*
X114431592Y-96269881D01*
X114319881Y-96381592D01*
X114283124Y-96445256D01*
X113707525Y-95869657D01*
X113707524Y-95869657D01*
X113691420Y-95887149D01*
X113691418Y-95887152D01*
X113564515Y-96081391D01*
X113471320Y-96293854D01*
X113414362Y-96518778D01*
X113395202Y-96749996D01*
X113395202Y-96750003D01*
X112750500Y-96750003D01*
X112750500Y-95967255D01*
X112772174Y-95914929D01*
X114014929Y-94672174D01*
X114067255Y-94650500D01*
X116019746Y-94650500D01*
X116019748Y-94650500D01*
X116078231Y-94638867D01*
X116144552Y-94594552D01*
X116188867Y-94528231D01*
X116200500Y-94469748D01*
X116200500Y-92030252D01*
X116188867Y-91971769D01*
X116144552Y-91905448D01*
X116122343Y-91890608D01*
X116078232Y-91861133D01*
X116078233Y-91861133D01*
X116048989Y-91855316D01*
X116019748Y-91849500D01*
X113580252Y-91849500D01*
X113551010Y-91855316D01*
X113521767Y-91861133D01*
X113455449Y-91905447D01*
X113455447Y-91905449D01*
X113411133Y-91971767D01*
X113411133Y-91971769D01*
X113400593Y-92024760D01*
X113399500Y-92030253D01*
X113399500Y-93982745D01*
X113377826Y-94035071D01*
X111939508Y-95473389D01*
X111880201Y-95576111D01*
X111880199Y-95576118D01*
X111878875Y-95581056D01*
X111878876Y-95581057D01*
X111849500Y-95690691D01*
X111849500Y-99959308D01*
X110200500Y-99959308D01*
X110200500Y-89050000D01*
X112587501Y-89050000D01*
X112587501Y-89189206D01*
X112603031Y-89287264D01*
X112663251Y-89405453D01*
X112757046Y-89499248D01*
X112875235Y-89559469D01*
X112973292Y-89574999D01*
X113075000Y-89574999D01*
X113075000Y-89050000D01*
X113375000Y-89050000D01*
X113375000Y-89574999D01*
X113476707Y-89574999D01*
X113574764Y-89559468D01*
X113692953Y-89499248D01*
X113786748Y-89405453D01*
X113846968Y-89287264D01*
X113862494Y-89189246D01*
X114162000Y-89189246D01*
X114177549Y-89287420D01*
X114237840Y-89405749D01*
X114331750Y-89499659D01*
X114390914Y-89529804D01*
X114450079Y-89559950D01*
X114450079Y-89559951D01*
X114548253Y-89575500D01*
X114548254Y-89575500D01*
X115051747Y-89575500D01*
X115149920Y-89559951D01*
X115268251Y-89499658D01*
X115362158Y-89405751D01*
X115422451Y-89287420D01*
X115426331Y-89262924D01*
X115455924Y-89214633D01*
X115499420Y-89200500D01*
X115881532Y-89200500D01*
X115933858Y-89222174D01*
X115948599Y-89243227D01*
X115965933Y-89280402D01*
X115965935Y-89280404D01*
X116049596Y-89364065D01*
X116156827Y-89414068D01*
X116205684Y-89420500D01*
X116205686Y-89420500D01*
X116554314Y-89420500D01*
X116554316Y-89420500D01*
X116603173Y-89414068D01*
X116710404Y-89364065D01*
X116794065Y-89280404D01*
X116822933Y-89218495D01*
X116864690Y-89180232D01*
X116921273Y-89182702D01*
X116957067Y-89218496D01*
X116985933Y-89280402D01*
X116985935Y-89280404D01*
X117069596Y-89364065D01*
X117176827Y-89414068D01*
X117225684Y-89420500D01*
X117225686Y-89420500D01*
X117574314Y-89420500D01*
X117574316Y-89420500D01*
X117623173Y-89414068D01*
X117730404Y-89364065D01*
X117772295Y-89322174D01*
X117824621Y-89300500D01*
X117975708Y-89300500D01*
X118015714Y-89312246D01*
X118089947Y-89359953D01*
X118196403Y-89391211D01*
X118228035Y-89400499D01*
X118228037Y-89400500D01*
X118228039Y-89400500D01*
X118371963Y-89400500D01*
X118371964Y-89400499D01*
X118510053Y-89359953D01*
X118631128Y-89282143D01*
X118725377Y-89173373D01*
X118785165Y-89042457D01*
X118805647Y-88900000D01*
X118785165Y-88757543D01*
X118725377Y-88626627D01*
X118698004Y-88595037D01*
X118631131Y-88517860D01*
X118631129Y-88517859D01*
X118631128Y-88517857D01*
X118568838Y-88477826D01*
X118510054Y-88440047D01*
X118510050Y-88440046D01*
X118371964Y-88399500D01*
X118371961Y-88399500D01*
X118228039Y-88399500D01*
X118228036Y-88399500D01*
X118089949Y-88440046D01*
X118089945Y-88440047D01*
X118015715Y-88487753D01*
X117975708Y-88499500D01*
X117824621Y-88499500D01*
X117772295Y-88477826D01*
X117730404Y-88435935D01*
X117652269Y-88399500D01*
X117623173Y-88385932D01*
X117623171Y-88385931D01*
X117587178Y-88381193D01*
X117574316Y-88379500D01*
X117225684Y-88379500D01*
X117214318Y-88380996D01*
X117176828Y-88385931D01*
X117069595Y-88435935D01*
X116985935Y-88519595D01*
X116957067Y-88581504D01*
X116915309Y-88619767D01*
X116858726Y-88617297D01*
X116822933Y-88581504D01*
X116821218Y-88577826D01*
X116794065Y-88519596D01*
X116710404Y-88435935D01*
X116603173Y-88385932D01*
X116603171Y-88385931D01*
X116567178Y-88381193D01*
X116554316Y-88379500D01*
X116205684Y-88379500D01*
X116194318Y-88380996D01*
X116156828Y-88385931D01*
X116049595Y-88435935D01*
X115965933Y-88519597D01*
X115948599Y-88556773D01*
X115906842Y-88595037D01*
X115881532Y-88599500D01*
X115499420Y-88599500D01*
X115447094Y-88577826D01*
X115426331Y-88537076D01*
X115423287Y-88517860D01*
X115422451Y-88512580D01*
X115364834Y-88399500D01*
X115362159Y-88394250D01*
X115268249Y-88300340D01*
X115149920Y-88240049D01*
X115149920Y-88240048D01*
X115051747Y-88224500D01*
X115051746Y-88224500D01*
X114548254Y-88224500D01*
X114548253Y-88224500D01*
X114450079Y-88240048D01*
X114450079Y-88240049D01*
X114331750Y-88300340D01*
X114237840Y-88394250D01*
X114177549Y-88512579D01*
X114177548Y-88512579D01*
X114162000Y-88610753D01*
X114162000Y-89189246D01*
X113862494Y-89189246D01*
X113862500Y-89189207D01*
X113862500Y-89050000D01*
X113375000Y-89050000D01*
X113075000Y-89050000D01*
X112587501Y-89050000D01*
X110200500Y-89050000D01*
X110200500Y-88750000D01*
X112587500Y-88750000D01*
X113075000Y-88750000D01*
X113075000Y-88225000D01*
X113375000Y-88225000D01*
X113375000Y-88750000D01*
X113862499Y-88750000D01*
X113862499Y-88610793D01*
X113846968Y-88512735D01*
X113786748Y-88394546D01*
X113692953Y-88300751D01*
X113574764Y-88240531D01*
X113476708Y-88225000D01*
X113375000Y-88225000D01*
X113075000Y-88225000D01*
X112973293Y-88225000D01*
X112875235Y-88240531D01*
X112757046Y-88300751D01*
X112663251Y-88394546D01*
X112603031Y-88512735D01*
X112587500Y-88610792D01*
X112587500Y-88750000D01*
X110200500Y-88750000D01*
X110200500Y-87864746D01*
X120384500Y-87864746D01*
X120396133Y-87923232D01*
X120425608Y-87967343D01*
X120440448Y-87989552D01*
X120457891Y-88001207D01*
X120506767Y-88033866D01*
X120506768Y-88033866D01*
X120506769Y-88033867D01*
X120565252Y-88045500D01*
X120565254Y-88045500D01*
X122304746Y-88045500D01*
X122304748Y-88045500D01*
X122352772Y-88035947D01*
X122408319Y-88046996D01*
X122439785Y-88094088D01*
X122428736Y-88149637D01*
X122419533Y-88160851D01*
X122343942Y-88236443D01*
X122266442Y-88313943D01*
X122224500Y-88415200D01*
X122224500Y-90754799D01*
X122265920Y-90854795D01*
X122265920Y-90854798D01*
X122266440Y-90856052D01*
X122266441Y-90856054D01*
X122266443Y-90856058D01*
X122266445Y-90856060D01*
X123602826Y-92192441D01*
X123624500Y-92244767D01*
X123624500Y-95054800D01*
X123657638Y-95134800D01*
X123666443Y-95156058D01*
X123666444Y-95156059D01*
X123883558Y-95373174D01*
X123905232Y-95425500D01*
X123883558Y-95477826D01*
X123831232Y-95499500D01*
X123269697Y-95499500D01*
X123217371Y-95477826D01*
X123196450Y-95436031D01*
X123185165Y-95357545D01*
X123185165Y-95357543D01*
X123125377Y-95226627D01*
X123064229Y-95156058D01*
X123031131Y-95117860D01*
X123031129Y-95117859D01*
X123031128Y-95117857D01*
X122959429Y-95071779D01*
X122910054Y-95040047D01*
X122910050Y-95040046D01*
X122771964Y-94999500D01*
X122771961Y-94999500D01*
X122628039Y-94999500D01*
X122628036Y-94999500D01*
X122489949Y-95040046D01*
X122489945Y-95040047D01*
X122368875Y-95117855D01*
X122368868Y-95117860D01*
X122274623Y-95226626D01*
X122214834Y-95357545D01*
X122194353Y-95500000D01*
X122213656Y-95634260D01*
X122199649Y-95689138D01*
X122150940Y-95718038D01*
X122100402Y-95707044D01*
X122035054Y-95665047D01*
X122035050Y-95665046D01*
X121896964Y-95624500D01*
X121896961Y-95624500D01*
X121753039Y-95624500D01*
X121753036Y-95624500D01*
X121614949Y-95665046D01*
X121614945Y-95665047D01*
X121493875Y-95742855D01*
X121493868Y-95742860D01*
X121399623Y-95851626D01*
X121339834Y-95982545D01*
X121319353Y-96125000D01*
X121339834Y-96267454D01*
X121339834Y-96267455D01*
X121339835Y-96267457D01*
X121368398Y-96330000D01*
X121399623Y-96398373D01*
X121493868Y-96507139D01*
X121493869Y-96507140D01*
X121493872Y-96507143D01*
X121614947Y-96584953D01*
X121721403Y-96616211D01*
X121753035Y-96625499D01*
X121753037Y-96625500D01*
X121753039Y-96625500D01*
X121896963Y-96625500D01*
X121896964Y-96625499D01*
X121908622Y-96622076D01*
X122035053Y-96584953D01*
X122156128Y-96507143D01*
X122226404Y-96426039D01*
X122277050Y-96400689D01*
X122282329Y-96400500D01*
X123970200Y-96400500D01*
X124776000Y-96400500D01*
X124828326Y-96422174D01*
X124850000Y-96474500D01*
X124850000Y-97600000D01*
X127800000Y-97600000D01*
X127800000Y-97250000D01*
X129825001Y-97250000D01*
X129825001Y-97358451D01*
X129840761Y-97457969D01*
X129840762Y-97457971D01*
X129901882Y-97577923D01*
X129997078Y-97673119D01*
X130117030Y-97734237D01*
X130117031Y-97734238D01*
X130216548Y-97749999D01*
X130350000Y-97749999D01*
X130350000Y-97250000D01*
X130650000Y-97250000D01*
X130650000Y-97749999D01*
X130783451Y-97749999D01*
X130882969Y-97734238D01*
X130882971Y-97734237D01*
X131002923Y-97673117D01*
X131098119Y-97577921D01*
X131159237Y-97457969D01*
X131159238Y-97457968D01*
X131175000Y-97358451D01*
X131175000Y-97250000D01*
X130650000Y-97250000D01*
X130350000Y-97250000D01*
X129825001Y-97250000D01*
X127800000Y-97250000D01*
X127800000Y-96630000D01*
X128510000Y-96630000D01*
X128510000Y-96659838D01*
X128516518Y-96709354D01*
X128567192Y-96818024D01*
X128651975Y-96902807D01*
X128760646Y-96953481D01*
X128760645Y-96953481D01*
X128810162Y-96960000D01*
X128870000Y-96960000D01*
X128870000Y-96630000D01*
X129170000Y-96630000D01*
X129170000Y-96960000D01*
X129229838Y-96960000D01*
X129279354Y-96953481D01*
X129286819Y-96950000D01*
X129825000Y-96950000D01*
X130350000Y-96950000D01*
X130350000Y-96450000D01*
X130650000Y-96450000D01*
X130650000Y-96950000D01*
X131174999Y-96950000D01*
X131174999Y-96841548D01*
X131159238Y-96742030D01*
X131159237Y-96742028D01*
X131112345Y-96650000D01*
X133925001Y-96650000D01*
X133925001Y-96683224D01*
X133934912Y-96751250D01*
X133986213Y-96856188D01*
X134068810Y-96938785D01*
X134173750Y-96990087D01*
X134241781Y-96999999D01*
X134750000Y-96999999D01*
X134750000Y-96650000D01*
X135050000Y-96650000D01*
X135050000Y-96999999D01*
X135558211Y-96999999D01*
X135558224Y-96999998D01*
X135626250Y-96990087D01*
X135731188Y-96938786D01*
X135813785Y-96856189D01*
X135865087Y-96751249D01*
X135874999Y-96683223D01*
X135875000Y-96683212D01*
X135875000Y-96650000D01*
X135050000Y-96650000D01*
X134750000Y-96650000D01*
X133925001Y-96650000D01*
X131112345Y-96650000D01*
X131098117Y-96622076D01*
X131002921Y-96526880D01*
X130882969Y-96465762D01*
X130882968Y-96465761D01*
X130783452Y-96450000D01*
X130650000Y-96450000D01*
X130350000Y-96450000D01*
X130216548Y-96450000D01*
X130117030Y-96465761D01*
X130117028Y-96465762D01*
X129997076Y-96526882D01*
X129901880Y-96622078D01*
X129840762Y-96742030D01*
X129840761Y-96742031D01*
X129825000Y-96841548D01*
X129825000Y-96950000D01*
X129286819Y-96950000D01*
X129388024Y-96902807D01*
X129472807Y-96818024D01*
X129523481Y-96709354D01*
X129530000Y-96659838D01*
X129530000Y-96630000D01*
X129170000Y-96630000D01*
X128870000Y-96630000D01*
X128510000Y-96630000D01*
X127800000Y-96630000D01*
X127800000Y-96124500D01*
X127821674Y-96072174D01*
X127874000Y-96050500D01*
X128279798Y-96050500D01*
X128279800Y-96050500D01*
X128381058Y-96008557D01*
X128458557Y-95931058D01*
X128458556Y-95931058D01*
X128493517Y-95896097D01*
X128496719Y-95892895D01*
X128549049Y-95871229D01*
X128601363Y-95892903D01*
X128656262Y-95947802D01*
X128653554Y-95950509D01*
X128677091Y-95987546D01*
X128664770Y-96042827D01*
X128656527Y-96052640D01*
X128567192Y-96141975D01*
X128516518Y-96250645D01*
X128510000Y-96300161D01*
X128510000Y-96330000D01*
X129530000Y-96330000D01*
X129530000Y-96300161D01*
X129523481Y-96250645D01*
X129472807Y-96141975D01*
X129383472Y-96052640D01*
X129361798Y-96000314D01*
X129383472Y-95947988D01*
X129383967Y-95947572D01*
X129389366Y-95942174D01*
X129391418Y-95941323D01*
X129393392Y-95939669D01*
X129393658Y-95939483D01*
X129394153Y-95940191D01*
X129441692Y-95920500D01*
X129801239Y-95920500D01*
X129853565Y-95942174D01*
X129867172Y-95960903D01*
X129901472Y-96028220D01*
X129996780Y-96123528D01*
X130116874Y-96184719D01*
X130216511Y-96200500D01*
X130216512Y-96200500D01*
X130783489Y-96200500D01*
X130844170Y-96190889D01*
X130883126Y-96184719D01*
X131003220Y-96123528D01*
X131098528Y-96028220D01*
X131159719Y-95908126D01*
X131175500Y-95808488D01*
X131175500Y-95291512D01*
X131159719Y-95191874D01*
X131098528Y-95071780D01*
X131003220Y-94976472D01*
X130940904Y-94944720D01*
X130904122Y-94901653D01*
X130900500Y-94878786D01*
X130900500Y-94829682D01*
X130918574Y-94781222D01*
X130925377Y-94773373D01*
X130985165Y-94642457D01*
X131005647Y-94500000D01*
X131001297Y-94469748D01*
X130985165Y-94357545D01*
X130985165Y-94357543D01*
X130925377Y-94226627D01*
X130859413Y-94150500D01*
X130831131Y-94117860D01*
X130831129Y-94117859D01*
X130831128Y-94117857D01*
X130754173Y-94068401D01*
X130710054Y-94040047D01*
X130710050Y-94040046D01*
X130571964Y-93999500D01*
X130571961Y-93999500D01*
X130428039Y-93999500D01*
X130428036Y-93999500D01*
X130289949Y-94040046D01*
X130289945Y-94040047D01*
X130168875Y-94117855D01*
X130168868Y-94117860D01*
X130074623Y-94226626D01*
X130014834Y-94357545D01*
X129994353Y-94499999D01*
X130014834Y-94642454D01*
X130014834Y-94642455D01*
X130014835Y-94642457D01*
X130074623Y-94773373D01*
X130081425Y-94781222D01*
X130099500Y-94829682D01*
X130099500Y-94878786D01*
X130077826Y-94931112D01*
X130059096Y-94944720D01*
X129996779Y-94976472D01*
X129901472Y-95071779D01*
X129897744Y-95079097D01*
X129854676Y-95115879D01*
X129831810Y-95119500D01*
X129441692Y-95119500D01*
X129394109Y-95099790D01*
X129393620Y-95100490D01*
X129390466Y-95098281D01*
X129389366Y-95097826D01*
X129388316Y-95096776D01*
X129350403Y-95079097D01*
X129279487Y-95046028D01*
X129279485Y-95046027D01*
X129242955Y-95041218D01*
X129229901Y-95039500D01*
X129229899Y-95039500D01*
X129028767Y-95039500D01*
X128976441Y-95017826D01*
X128954767Y-94965500D01*
X128976441Y-94913174D01*
X129059933Y-94829682D01*
X129133557Y-94756059D01*
X129145841Y-94726400D01*
X129175500Y-94654800D01*
X129175500Y-93544767D01*
X129197174Y-93492441D01*
X129492442Y-93197174D01*
X129544768Y-93175500D01*
X130753189Y-93175500D01*
X130805515Y-93197174D01*
X130820255Y-93218225D01*
X130825933Y-93230401D01*
X130825935Y-93230404D01*
X130909596Y-93314065D01*
X130971773Y-93343058D01*
X131010037Y-93384815D01*
X131014500Y-93410125D01*
X131014500Y-93844800D01*
X131055566Y-93943941D01*
X131056443Y-93946058D01*
X131056444Y-93946059D01*
X131126460Y-94016075D01*
X131148134Y-94068401D01*
X131147381Y-94078929D01*
X131144353Y-94099996D01*
X131144353Y-94099999D01*
X131164834Y-94242454D01*
X131164834Y-94242455D01*
X131164835Y-94242457D01*
X131167644Y-94248607D01*
X131224623Y-94373373D01*
X131318868Y-94482139D01*
X131318869Y-94482140D01*
X131318872Y-94482143D01*
X131439947Y-94559953D01*
X131546403Y-94591211D01*
X131578035Y-94600499D01*
X131578037Y-94600500D01*
X131727254Y-94600500D01*
X131727254Y-94602907D01*
X131774187Y-94614873D01*
X131782183Y-94621799D01*
X131893941Y-94733557D01*
X131922050Y-94745200D01*
X131995200Y-94775500D01*
X132854798Y-94775500D01*
X132854800Y-94775500D01*
X132956058Y-94733557D01*
X133033557Y-94656058D01*
X133033556Y-94656058D01*
X133068517Y-94621097D01*
X133068516Y-94621097D01*
X133862387Y-93827228D01*
X133914712Y-93805555D01*
X133967038Y-93827229D01*
X133981193Y-93847055D01*
X133985801Y-93856482D01*
X134068519Y-93939200D01*
X134069327Y-93939777D01*
X134069710Y-93940391D01*
X134072853Y-93943534D01*
X134072125Y-93944261D01*
X134099316Y-93987823D01*
X134086548Y-94043002D01*
X134069327Y-94060223D01*
X134068519Y-94060799D01*
X133985801Y-94143517D01*
X133934427Y-94248605D01*
X133934427Y-94248606D01*
X133924500Y-94316735D01*
X133924500Y-94683264D01*
X133934427Y-94751393D01*
X133934427Y-94751394D01*
X133985801Y-94856482D01*
X134068519Y-94939200D01*
X134069327Y-94939777D01*
X134069710Y-94940391D01*
X134072853Y-94943534D01*
X134072125Y-94944261D01*
X134099316Y-94987823D01*
X134086548Y-95043002D01*
X134069327Y-95060223D01*
X134068519Y-95060799D01*
X134051493Y-95077826D01*
X133999167Y-95099500D01*
X133624292Y-95099500D01*
X133584285Y-95087753D01*
X133510054Y-95040047D01*
X133510050Y-95040046D01*
X133371964Y-94999500D01*
X133371961Y-94999500D01*
X133228039Y-94999500D01*
X133228036Y-94999500D01*
X133089949Y-95040046D01*
X133089945Y-95040047D01*
X132968875Y-95117855D01*
X132968868Y-95117860D01*
X132874623Y-95226626D01*
X132814834Y-95357545D01*
X132794353Y-95500000D01*
X132814834Y-95642454D01*
X132814834Y-95642455D01*
X132814835Y-95642457D01*
X132833471Y-95683264D01*
X132874623Y-95773373D01*
X132968868Y-95882139D01*
X132968869Y-95882140D01*
X132968872Y-95882143D01*
X133059197Y-95940191D01*
X133085832Y-95957309D01*
X133089947Y-95959953D01*
X133183921Y-95987546D01*
X133228035Y-96000499D01*
X133228037Y-96000500D01*
X133228039Y-96000500D01*
X133371963Y-96000500D01*
X133371964Y-96000499D01*
X133372594Y-96000314D01*
X133510053Y-95959953D01*
X133584285Y-95912246D01*
X133624292Y-95900500D01*
X133999167Y-95900500D01*
X134051493Y-95922174D01*
X134068516Y-95939197D01*
X134069754Y-95940081D01*
X134070342Y-95941023D01*
X134072853Y-95943534D01*
X134072272Y-95944114D01*
X134099750Y-95988122D01*
X134086990Y-96043303D01*
X134069767Y-96060530D01*
X134068815Y-96061209D01*
X133986214Y-96143810D01*
X133934912Y-96248750D01*
X133925000Y-96316776D01*
X133925000Y-96350000D01*
X135874999Y-96350000D01*
X135874999Y-96316789D01*
X135874998Y-96316775D01*
X135865087Y-96248749D01*
X135813786Y-96143811D01*
X135731188Y-96061213D01*
X135730237Y-96060534D01*
X135729785Y-96059810D01*
X135726853Y-96056878D01*
X135727531Y-96056199D01*
X135700247Y-96012488D01*
X135713014Y-95957309D01*
X135730249Y-95940077D01*
X135731470Y-95939203D01*
X135731483Y-95939198D01*
X135814198Y-95856483D01*
X135865573Y-95751393D01*
X135875500Y-95683260D01*
X135875500Y-95316740D01*
X135865573Y-95248607D01*
X135814198Y-95143517D01*
X135731483Y-95060802D01*
X135731481Y-95060801D01*
X135730677Y-95060227D01*
X135730293Y-95059612D01*
X135727147Y-95056466D01*
X135727874Y-95055738D01*
X135700684Y-95012183D01*
X135713447Y-94957003D01*
X135730677Y-94939773D01*
X135731477Y-94939200D01*
X135731483Y-94939198D01*
X135814198Y-94856483D01*
X135833500Y-94817000D01*
X135875953Y-94779510D01*
X135899981Y-94775500D01*
X136054798Y-94775500D01*
X136054800Y-94775500D01*
X136156058Y-94733557D01*
X136233557Y-94656058D01*
X136383557Y-94506058D01*
X136398597Y-94469748D01*
X136425500Y-94404800D01*
X136425500Y-93045200D01*
X136407572Y-93001918D01*
X136398534Y-92980099D01*
X136383559Y-92943944D01*
X136383557Y-92943941D01*
X136116059Y-92676444D01*
X136116058Y-92676443D01*
X136091916Y-92666443D01*
X136014800Y-92634500D01*
X136014799Y-92634500D01*
X134115994Y-92634500D01*
X134063668Y-92612826D01*
X134060076Y-92608968D01*
X133981128Y-92517857D01*
X133902097Y-92467067D01*
X133860054Y-92440047D01*
X133860050Y-92440046D01*
X133721964Y-92399500D01*
X133721961Y-92399500D01*
X133578039Y-92399500D01*
X133578036Y-92399500D01*
X133439949Y-92440046D01*
X133439945Y-92440047D01*
X133318871Y-92517857D01*
X133318868Y-92517859D01*
X133316813Y-92520232D01*
X133315197Y-92521040D01*
X133314868Y-92521326D01*
X133314795Y-92521241D01*
X133266165Y-92545581D01*
X133212427Y-92527692D01*
X133208564Y-92524095D01*
X133180402Y-92495933D01*
X133134886Y-92474709D01*
X133118495Y-92467066D01*
X133080232Y-92425310D01*
X133082702Y-92368727D01*
X133118495Y-92332933D01*
X133180404Y-92304065D01*
X133264065Y-92220404D01*
X133314068Y-92113173D01*
X133320500Y-92064316D01*
X133320500Y-91715684D01*
X133314068Y-91666827D01*
X133264065Y-91559596D01*
X133180404Y-91475935D01*
X133073173Y-91425932D01*
X133073171Y-91425931D01*
X133037178Y-91421193D01*
X133024316Y-91419500D01*
X132575684Y-91419500D01*
X132564318Y-91420996D01*
X132526828Y-91425931D01*
X132450404Y-91461568D01*
X132440381Y-91466243D01*
X132426819Y-91472567D01*
X132395545Y-91479500D01*
X131713109Y-91479500D01*
X131676590Y-91467985D01*
X131676271Y-91468671D01*
X131671065Y-91466243D01*
X131670664Y-91466117D01*
X131670404Y-91465935D01*
X131630240Y-91447206D01*
X131563173Y-91415932D01*
X131563171Y-91415931D01*
X131527178Y-91411193D01*
X131514316Y-91409500D01*
X131065684Y-91409500D01*
X131054318Y-91410996D01*
X131016828Y-91415931D01*
X130909595Y-91465935D01*
X130909336Y-91466117D01*
X130908934Y-91466243D01*
X130903729Y-91468671D01*
X130903409Y-91467985D01*
X130866891Y-91479500D01*
X130284949Y-91479500D01*
X130283407Y-91479484D01*
X130133449Y-91476359D01*
X130094984Y-91464628D01*
X130034769Y-91425931D01*
X130010053Y-91410047D01*
X130010050Y-91410046D01*
X129871964Y-91369500D01*
X129871961Y-91369500D01*
X129728039Y-91369500D01*
X129728036Y-91369500D01*
X129589949Y-91410046D01*
X129589945Y-91410047D01*
X129468875Y-91487855D01*
X129468868Y-91487860D01*
X129374623Y-91596626D01*
X129314834Y-91727545D01*
X129294353Y-91870000D01*
X129314834Y-92012453D01*
X129314834Y-92012455D01*
X129320454Y-92024760D01*
X129322475Y-92081361D01*
X129283881Y-92122813D01*
X129253141Y-92129500D01*
X129240200Y-92129500D01*
X129138944Y-92171440D01*
X129138941Y-92171442D01*
X128343942Y-92966443D01*
X128266442Y-93043943D01*
X128224500Y-93145200D01*
X128224500Y-94355233D01*
X128202826Y-94407559D01*
X127926326Y-94684059D01*
X127874000Y-94705733D01*
X127821674Y-94684059D01*
X127800000Y-94631733D01*
X127800000Y-93650000D01*
X124850000Y-93650000D01*
X124850000Y-94725500D01*
X124828326Y-94777826D01*
X124776000Y-94799500D01*
X124719768Y-94799500D01*
X124667442Y-94777826D01*
X124597174Y-94707558D01*
X124575500Y-94655232D01*
X124575500Y-91844767D01*
X124597174Y-91792441D01*
X124990115Y-91399500D01*
X125433557Y-90956059D01*
X125445841Y-90926400D01*
X125475500Y-90854800D01*
X125475500Y-87574140D01*
X125497174Y-87521814D01*
X125549500Y-87500140D01*
X125601826Y-87521814D01*
X125614762Y-87539256D01*
X125637315Y-87581450D01*
X125729275Y-87693505D01*
X125768590Y-87741410D01*
X125928550Y-87872685D01*
X126111046Y-87970232D01*
X126309066Y-88030300D01*
X126515000Y-88050583D01*
X126720934Y-88030300D01*
X126918954Y-87970232D01*
X127101450Y-87872685D01*
X127261410Y-87741410D01*
X127392685Y-87581450D01*
X127490232Y-87398954D01*
X127550300Y-87200934D01*
X127570583Y-86995000D01*
X127999417Y-86995000D01*
X128019700Y-87200935D01*
X128079769Y-87398956D01*
X128177315Y-87581450D01*
X128269275Y-87693505D01*
X128308590Y-87741410D01*
X128468550Y-87872685D01*
X128651046Y-87970232D01*
X128849066Y-88030300D01*
X129055000Y-88050583D01*
X129260934Y-88030300D01*
X129458954Y-87970232D01*
X129641450Y-87872685D01*
X129801410Y-87741410D01*
X129932685Y-87581450D01*
X130030232Y-87398954D01*
X130090300Y-87200934D01*
X130110583Y-86995000D01*
X130090300Y-86789066D01*
X130030232Y-86591046D01*
X129932685Y-86408550D01*
X129801410Y-86248590D01*
X129641450Y-86117315D01*
X129458954Y-86019768D01*
X129347158Y-85985855D01*
X129260935Y-85959700D01*
X129055000Y-85939417D01*
X128849064Y-85959700D01*
X128651043Y-86019769D01*
X128468549Y-86117315D01*
X128308590Y-86248589D01*
X128308589Y-86248590D01*
X128177315Y-86408549D01*
X128079769Y-86591043D01*
X128019700Y-86789064D01*
X127999417Y-86995000D01*
X127570583Y-86995000D01*
X127550300Y-86789066D01*
X127490232Y-86591046D01*
X127392685Y-86408550D01*
X127261410Y-86248590D01*
X127101450Y-86117315D01*
X126918954Y-86019768D01*
X126807158Y-85985855D01*
X126720935Y-85959700D01*
X126515000Y-85939417D01*
X126309064Y-85959700D01*
X126111043Y-86019769D01*
X125928549Y-86117315D01*
X125768590Y-86248589D01*
X125768589Y-86248590D01*
X125637315Y-86408549D01*
X125588012Y-86500787D01*
X125544230Y-86536717D01*
X125487866Y-86531165D01*
X125454383Y-86494222D01*
X125433557Y-86443942D01*
X125433557Y-86443941D01*
X124476154Y-85486539D01*
X124454481Y-85434214D01*
X124476155Y-85381888D01*
X124493593Y-85368955D01*
X124561450Y-85332685D01*
X124721410Y-85201410D01*
X124852685Y-85041450D01*
X124950232Y-84858954D01*
X125010300Y-84660934D01*
X125030583Y-84455000D01*
X125459417Y-84455000D01*
X125479700Y-84660934D01*
X125539768Y-84858954D01*
X125637315Y-85041450D01*
X125768590Y-85201410D01*
X125928550Y-85332685D01*
X126111046Y-85430232D01*
X126309066Y-85490300D01*
X126515000Y-85510583D01*
X126720934Y-85490300D01*
X126918954Y-85430232D01*
X127101450Y-85332685D01*
X127261410Y-85201410D01*
X127392685Y-85041450D01*
X127490232Y-84858954D01*
X127550300Y-84660934D01*
X127555809Y-84605000D01*
X128014693Y-84605000D01*
X128020192Y-84660837D01*
X128080233Y-84858764D01*
X128177731Y-85041169D01*
X128177737Y-85041178D01*
X128308945Y-85201054D01*
X128468821Y-85332262D01*
X128468830Y-85332268D01*
X128651235Y-85429766D01*
X128849162Y-85489807D01*
X128905000Y-85495306D01*
X128905000Y-84932445D01*
X128989174Y-84955000D01*
X129120826Y-84955000D01*
X129205000Y-84932445D01*
X129205000Y-85495306D01*
X129260837Y-85489807D01*
X129458764Y-85429766D01*
X129641169Y-85332268D01*
X129641178Y-85332262D01*
X129801054Y-85201054D01*
X129932262Y-85041178D01*
X129932268Y-85041169D01*
X130029766Y-84858764D01*
X130089807Y-84660837D01*
X130095307Y-84605000D01*
X129532445Y-84605000D01*
X129555000Y-84520826D01*
X129555000Y-84389174D01*
X129532445Y-84305000D01*
X130095306Y-84305000D01*
X130089807Y-84249162D01*
X130029766Y-84051235D01*
X129932268Y-83868830D01*
X129932262Y-83868821D01*
X129801054Y-83708945D01*
X129641178Y-83577737D01*
X129641169Y-83577731D01*
X129458764Y-83480233D01*
X129260836Y-83420192D01*
X129260838Y-83420192D01*
X129205000Y-83414692D01*
X129205000Y-83977554D01*
X129120826Y-83955000D01*
X128989174Y-83955000D01*
X128905000Y-83977554D01*
X128905000Y-83414692D01*
X128849162Y-83420192D01*
X128651235Y-83480233D01*
X128468830Y-83577731D01*
X128468821Y-83577737D01*
X128308945Y-83708945D01*
X128177737Y-83868821D01*
X128177731Y-83868830D01*
X128080233Y-84051235D01*
X128020192Y-84249162D01*
X128014693Y-84305000D01*
X128577555Y-84305000D01*
X128555000Y-84389174D01*
X128555000Y-84520826D01*
X128577555Y-84605000D01*
X128014693Y-84605000D01*
X127555809Y-84605000D01*
X127570583Y-84455000D01*
X127550300Y-84249066D01*
X127490232Y-84051046D01*
X127392685Y-83868550D01*
X127261410Y-83708590D01*
X127101450Y-83577315D01*
X126918954Y-83479768D01*
X126807158Y-83445855D01*
X126720935Y-83419700D01*
X126515000Y-83399417D01*
X126309064Y-83419700D01*
X126111043Y-83479769D01*
X125928549Y-83577315D01*
X125768590Y-83708589D01*
X125768589Y-83708590D01*
X125637315Y-83868549D01*
X125539769Y-84051043D01*
X125479700Y-84249064D01*
X125478425Y-84262007D01*
X125459417Y-84455000D01*
X125030583Y-84455000D01*
X125010300Y-84249066D01*
X124950232Y-84051046D01*
X124852685Y-83868550D01*
X124721410Y-83708590D01*
X124561450Y-83577315D01*
X124378954Y-83479768D01*
X124267158Y-83445855D01*
X124180935Y-83419700D01*
X123975000Y-83399417D01*
X123769064Y-83419700D01*
X123571043Y-83479769D01*
X123388549Y-83577315D01*
X123228590Y-83708589D01*
X123228589Y-83708590D01*
X123097315Y-83868549D01*
X122999769Y-84051043D01*
X122939700Y-84249064D01*
X122938425Y-84262007D01*
X122919417Y-84455000D01*
X122939700Y-84660934D01*
X122999710Y-84858764D01*
X122999769Y-84858956D01*
X123097315Y-85041450D01*
X123228589Y-85201409D01*
X123228590Y-85201410D01*
X123340555Y-85293297D01*
X123367254Y-85343247D01*
X123350813Y-85397445D01*
X123300863Y-85424144D01*
X123293610Y-85424500D01*
X122675200Y-85424500D01*
X122573944Y-85466440D01*
X122117558Y-85922826D01*
X122065232Y-85944500D01*
X120565252Y-85944500D01*
X120536010Y-85950316D01*
X120506767Y-85956133D01*
X120440449Y-86000447D01*
X120440447Y-86000449D01*
X120396133Y-86066767D01*
X120384500Y-86125253D01*
X120384500Y-87864746D01*
X110200500Y-87864746D01*
X110200500Y-83125963D01*
X111399500Y-83125963D01*
X111438909Y-83374782D01*
X111438912Y-83374795D01*
X111516756Y-83614373D01*
X111631129Y-83838845D01*
X111715521Y-83955000D01*
X111779207Y-84042656D01*
X111957344Y-84220793D01*
X111957347Y-84220795D01*
X111957348Y-84220796D01*
X112161154Y-84368870D01*
X112269345Y-84423995D01*
X112385621Y-84483241D01*
X112385623Y-84483241D01*
X112385626Y-84483243D01*
X112625204Y-84561087D01*
X112625210Y-84561088D01*
X112625215Y-84561090D01*
X112749626Y-84580795D01*
X112874036Y-84600500D01*
X112874038Y-84600500D01*
X113125964Y-84600500D01*
X113225491Y-84584736D01*
X113374785Y-84561090D01*
X113374792Y-84561087D01*
X113374795Y-84561087D01*
X113614373Y-84483243D01*
X113614373Y-84483242D01*
X113614379Y-84483241D01*
X113669805Y-84455000D01*
X120379417Y-84455000D01*
X120399700Y-84660934D01*
X120459768Y-84858954D01*
X120557315Y-85041450D01*
X120688590Y-85201410D01*
X120848550Y-85332685D01*
X121031046Y-85430232D01*
X121229066Y-85490300D01*
X121435000Y-85510583D01*
X121640934Y-85490300D01*
X121838954Y-85430232D01*
X122021450Y-85332685D01*
X122181410Y-85201410D01*
X122312685Y-85041450D01*
X122410232Y-84858954D01*
X122470300Y-84660934D01*
X122490583Y-84455000D01*
X122470300Y-84249066D01*
X122410232Y-84051046D01*
X122312685Y-83868550D01*
X122181410Y-83708590D01*
X122021450Y-83577315D01*
X121838954Y-83479768D01*
X121727158Y-83445855D01*
X121640935Y-83419700D01*
X121435000Y-83399417D01*
X121229064Y-83419700D01*
X121031043Y-83479769D01*
X120848549Y-83577315D01*
X120688590Y-83708589D01*
X120688589Y-83708590D01*
X120557315Y-83868549D01*
X120459769Y-84051043D01*
X120399700Y-84249064D01*
X120398425Y-84262007D01*
X120379417Y-84455000D01*
X113669805Y-84455000D01*
X113838845Y-84368870D01*
X114042656Y-84220793D01*
X114220793Y-84042656D01*
X114368870Y-83838845D01*
X114483241Y-83614379D01*
X114526979Y-83479768D01*
X114561087Y-83374795D01*
X114561087Y-83374792D01*
X114561090Y-83374785D01*
X114600500Y-83125963D01*
X135399500Y-83125963D01*
X135438909Y-83374782D01*
X135438912Y-83374795D01*
X135516756Y-83614373D01*
X135631129Y-83838845D01*
X135715521Y-83955000D01*
X135779207Y-84042656D01*
X135957344Y-84220793D01*
X135957347Y-84220795D01*
X135957348Y-84220796D01*
X136161154Y-84368870D01*
X136269345Y-84423995D01*
X136385621Y-84483241D01*
X136385623Y-84483241D01*
X136385626Y-84483243D01*
X136625204Y-84561087D01*
X136625210Y-84561088D01*
X136625215Y-84561090D01*
X136749626Y-84580795D01*
X136874036Y-84600500D01*
X136874038Y-84600500D01*
X137125964Y-84600500D01*
X137225491Y-84584736D01*
X137374785Y-84561090D01*
X137374792Y-84561087D01*
X137374795Y-84561087D01*
X137614373Y-84483243D01*
X137614373Y-84483242D01*
X137614379Y-84483241D01*
X137838845Y-84368870D01*
X138042656Y-84220793D01*
X138220793Y-84042656D01*
X138368870Y-83838845D01*
X138483241Y-83614379D01*
X138526979Y-83479768D01*
X138561087Y-83374795D01*
X138561087Y-83374792D01*
X138561090Y-83374785D01*
X138600500Y-83125962D01*
X138600500Y-82874038D01*
X138593884Y-82832269D01*
X138561090Y-82625217D01*
X138561087Y-82625204D01*
X138483243Y-82385626D01*
X138483241Y-82385623D01*
X138483241Y-82385621D01*
X138423995Y-82269345D01*
X138368870Y-82161154D01*
X138220796Y-81957348D01*
X138220795Y-81957347D01*
X138220793Y-81957344D01*
X138042656Y-81779207D01*
X138042653Y-81779204D01*
X138042651Y-81779203D01*
X137838845Y-81631129D01*
X137614373Y-81516756D01*
X137374795Y-81438912D01*
X137374782Y-81438909D01*
X137125964Y-81399500D01*
X137125962Y-81399500D01*
X136874038Y-81399500D01*
X136874036Y-81399500D01*
X136625217Y-81438909D01*
X136625204Y-81438912D01*
X136385626Y-81516756D01*
X136161154Y-81631129D01*
X135957348Y-81779203D01*
X135779203Y-81957348D01*
X135631129Y-82161154D01*
X135516756Y-82385626D01*
X135438912Y-82625204D01*
X135438909Y-82625217D01*
X135399500Y-82874036D01*
X135399500Y-83125963D01*
X114600500Y-83125963D01*
X114600500Y-83125962D01*
X114600500Y-82874038D01*
X114593884Y-82832269D01*
X114561090Y-82625217D01*
X114561087Y-82625204D01*
X114483243Y-82385626D01*
X114483241Y-82385623D01*
X114483241Y-82385621D01*
X114423995Y-82269345D01*
X114368870Y-82161154D01*
X114220796Y-81957348D01*
X114220795Y-81957347D01*
X114220793Y-81957344D01*
X114042656Y-81779207D01*
X114042653Y-81779204D01*
X114042651Y-81779203D01*
X113838845Y-81631129D01*
X113614373Y-81516756D01*
X113374795Y-81438912D01*
X113374782Y-81438909D01*
X113125964Y-81399500D01*
X113125962Y-81399500D01*
X112874038Y-81399500D01*
X112874036Y-81399500D01*
X112625217Y-81438909D01*
X112625204Y-81438912D01*
X112385626Y-81516756D01*
X112161154Y-81631129D01*
X111957348Y-81779203D01*
X111779203Y-81957348D01*
X111631129Y-82161154D01*
X111516756Y-82385626D01*
X111438912Y-82625204D01*
X111438909Y-82625217D01*
X111399500Y-82874036D01*
X111399500Y-83125963D01*
X110200500Y-83125963D01*
X110200500Y-83002083D01*
X110200616Y-82997934D01*
X110207574Y-82874036D01*
X110217870Y-82690688D01*
X110218800Y-82682450D01*
X110269994Y-82381140D01*
X110271833Y-82373080D01*
X110356453Y-82079361D01*
X110359183Y-82071558D01*
X110476150Y-81789175D01*
X110479743Y-81781713D01*
X110627590Y-81514204D01*
X110631991Y-81507199D01*
X110808875Y-81257904D01*
X110814020Y-81251453D01*
X111017690Y-81023548D01*
X111023553Y-81017686D01*
X111251453Y-80814020D01*
X111257904Y-80808875D01*
X111507199Y-80631991D01*
X111514204Y-80627590D01*
X111781713Y-80479743D01*
X111789175Y-80476150D01*
X112071558Y-80359183D01*
X112079361Y-80356453D01*
X112373080Y-80271833D01*
X112381140Y-80269994D01*
X112682458Y-80218799D01*
X112690688Y-80217870D01*
X112997934Y-80200615D01*
X113002083Y-80200500D01*
X113039882Y-80200500D01*
X136960118Y-80200500D01*
X136997917Y-80200500D01*
X137002065Y-80200615D01*
G37*
%TD.AperFunction*%
%TD*%
M02*
