M48
; DRILL file {KiCad 8.0.0-rc3-3-g27911d9b5a} date 2025-03-15T22:51:11+0100
; FORMAT={-:-/ absolute / inch / decimal}
; #@! TF.CreationDate,2025-03-15T22:51:11+01:00
; #@! TF.GenerationSoftware,Kicad,Pcbnew,8.0.0-rc3-3-g27911d9b5a
; #@! TF.FileFunction,Plated,1,2,PTH
FMAT,2
INCH
; #@! TA.AperFunction,Plated,PTH,ViaDrill
T1C0.0118
; #@! TA.AperFunction,Plated,PTH,ComponentDrill
T2C0.0394
; #@! TA.AperFunction,Plated,PTH,ComponentDrill
T3C0.0472
%
G90
G05
T1
X4.3614Y-4.0764
X4.3709Y-3.9768
X4.376Y-3.4945
X4.3882Y-3.4075
X4.4583Y-3.5465
X4.4681Y-4.048
X4.5091Y-3.9358
X4.5606Y-4.0642
X4.5728Y-3.3689
X4.5898Y-3.1909
X4.5898Y-3.5547
X4.6122Y-4.0551
X4.6134Y-4.1701
X4.6185Y-3.2689
X4.6201Y-3.8528
X4.6441Y-3.4134
X4.6575Y-3.5
X4.6835Y-3.9244
X4.6996Y-3.4752
X4.7067Y-3.5539
X4.7118Y-3.1846
X4.7185Y-3.6591
X4.7228Y-3.798
X4.7386Y-3.874
X4.739Y-4.2276
X4.7963Y-3.7844
X4.8228Y-3.6102
X4.8307Y-3.7598
X4.8398Y-3.8295
X4.8539Y-3.6898
X4.8622Y-3.5768
X4.9205Y-3.6189
X4.9236Y-3.1866
X4.9382Y-4.0961
X4.9385Y-3.9473
X4.9823Y-4.0547
X4.9984Y-3.8878
X5.0012Y-3.6142
X5.0276Y-3.5339
X5.0335Y-4.0323
X5.0795Y-3.826
X5.1102Y-3.6169
X5.1102Y-3.9961
X5.1173Y-4.089
X5.1378Y-3.7205
X5.1677Y-3.1878
X5.1768Y-3.924
X5.1807Y-3.8232
X5.1831Y-3.7047
X5.1909Y-3.4283
X5.1949Y-3.5598
X5.1961Y-4.0886
X5.2217Y-4.2228
X5.2224Y-3.6909
X5.2319Y-3.2587
X5.2323Y-3.8012
X5.2429Y-3.8598
X5.248Y-3.7598
X5.2618Y-3.6575
X5.2673Y-3.1878
X5.2701Y-3.4016
X5.2701Y-3.5213
X5.326Y-3.9504
X5.3531Y-3.8587
X5.3543Y-3.4276
X5.4055Y-3.926
X5.4146Y-4.0189
X5.4193Y-3.6815
X5.4476Y-3.4795
X5.4528Y-3.7815
X5.4594Y-3.9709
X5.4677Y-3.4094
X5.4744Y-4.0654
T2
X4.7809Y-3.325
X4.7809Y-3.425
X4.8809Y-3.325
X4.8809Y-3.425
X4.9809Y-3.325
X4.9809Y-3.425
X5.0809Y-3.325
X5.0809Y-3.425
T3
X4.5197Y-3.6713
X4.5197Y-3.8091
M30
