%TF.GenerationSoftware,KiCad,Pcbnew,8.0.0-rc3-3-g27911d9b5a*%
%TF.CreationDate,2025-04-12T13:37:00+02:00*%
%TF.ProjectId,MSPM0C1104_QWIIC,4d53504d-3043-4313-9130-345f51574949,rev?*%
%TF.SameCoordinates,Original*%
%TF.FileFunction,Legend,Top*%
%TF.FilePolarity,Positive*%
%FSLAX46Y46*%
G04 Gerber Fmt 4.6, Leading zero omitted, Abs format (unit mm)*
G04 Created by KiCad (PCBNEW 8.0.0-rc3-3-g27911d9b5a) date 2025-04-12 13:37:00*
%MOMM*%
%LPD*%
G01*
G04 APERTURE LIST*
%ADD10C,0.120000*%
G04 APERTURE END LIST*
D10*
%TO.C,C2*%
X163690000Y-86740580D02*
X163690000Y-86459420D01*
X164710000Y-86740580D02*
X164710000Y-86459420D01*
%TO.C,C1*%
X164940000Y-87007836D02*
X164940000Y-86792164D01*
X165660000Y-87007836D02*
X165660000Y-86792164D01*
%TO.C,R2*%
X166546359Y-89270000D02*
X166853641Y-89270000D01*
X166546359Y-90030000D02*
X166853641Y-90030000D01*
%TO.C,R3*%
X164460000Y-90963641D02*
X164460000Y-90656359D01*
X165220000Y-90963641D02*
X165220000Y-90656359D01*
%TO.C,D2*%
X167465000Y-88367500D02*
X167465000Y-90652500D01*
X168935000Y-88367500D02*
X167465000Y-88367500D01*
X168935000Y-90652500D02*
X168935000Y-88367500D01*
%TO.C,U1*%
X166075000Y-89125000D02*
X166075000Y-87025000D01*
X166075000Y-89125000D02*
X166855000Y-89125000D01*
X167175000Y-87025000D02*
X166075000Y-87025000D01*
X167175000Y-88805000D02*
X167175000Y-87025000D01*
X167175000Y-89625000D02*
X167175000Y-89125000D01*
X167675000Y-89125000D01*
X167175000Y-89625000D01*
G36*
X167175000Y-89625000D02*
G01*
X167175000Y-89125000D01*
X167675000Y-89125000D01*
X167175000Y-89625000D01*
G37*
%TO.C,TP2*%
X165950000Y-84800000D02*
G75*
G02*
X164550000Y-84800000I-700000J0D01*
G01*
X164550000Y-84800000D02*
G75*
G02*
X165950000Y-84800000I700000J0D01*
G01*
%TO.C,D1*%
X167465000Y-85300000D02*
X167465000Y-87585000D01*
X167465000Y-87585000D02*
X168935000Y-87585000D01*
X168935000Y-87585000D02*
X168935000Y-85300000D01*
%TO.C,TP1*%
X167600000Y-84800000D02*
G75*
G02*
X166200000Y-84800000I-700000J0D01*
G01*
X166200000Y-84800000D02*
G75*
G02*
X167600000Y-84800000I700000J0D01*
G01*
%TO.C,R5*%
X166813641Y-90920000D02*
X166506359Y-90920000D01*
X166813641Y-91680000D02*
X166506359Y-91680000D01*
%TO.C,R4*%
X163620000Y-90963641D02*
X163620000Y-90656359D01*
X164380000Y-90963641D02*
X164380000Y-90656359D01*
%TD*%
M02*
