%TF.GenerationSoftware,KiCad,Pcbnew,8.0.0-rc3-3-g27911d9b5a*%
%TF.CreationDate,2025-04-12T13:37:00+02:00*%
%TF.ProjectId,MSPM0C1104_QWIIC,4d53504d-3043-4313-9130-345f51574949,rev?*%
%TF.SameCoordinates,Original*%
%TF.FileFunction,Copper,L1,Top*%
%TF.FilePolarity,Positive*%
%FSLAX46Y46*%
G04 Gerber Fmt 4.6, Leading zero omitted, Abs format (unit mm)*
G04 Created by KiCad (PCBNEW 8.0.0-rc3-3-g27911d9b5a) date 2025-04-12 13:37:00*
%MOMM*%
%LPD*%
G01*
G04 APERTURE LIST*
G04 Aperture macros list*
%AMRoundRect*
0 Rectangle with rounded corners*
0 $1 Rounding radius*
0 $2 $3 $4 $5 $6 $7 $8 $9 X,Y pos of 4 corners*
0 Add a 4 corners polygon primitive as box body*
4,1,4,$2,$3,$4,$5,$6,$7,$8,$9,$2,$3,0*
0 Add four circle primitives for the rounded corners*
1,1,$1+$1,$2,$3*
1,1,$1+$1,$4,$5*
1,1,$1+$1,$6,$7*
1,1,$1+$1,$8,$9*
0 Add four rect primitives between the rounded corners*
20,1,$1+$1,$2,$3,$4,$5,0*
20,1,$1+$1,$4,$5,$6,$7,0*
20,1,$1+$1,$6,$7,$8,$9,0*
20,1,$1+$1,$8,$9,$2,$3,0*%
G04 Aperture macros list end*
%TA.AperFunction,SMDPad,CuDef*%
%ADD10RoundRect,0.225000X0.250000X-0.225000X0.250000X0.225000X-0.250000X0.225000X-0.250000X-0.225000X0*%
%TD*%
%TA.AperFunction,SMDPad,CuDef*%
%ADD11RoundRect,0.140000X0.170000X-0.140000X0.170000X0.140000X-0.170000X0.140000X-0.170000X-0.140000X0*%
%TD*%
%TA.AperFunction,SMDPad,CuDef*%
%ADD12RoundRect,0.135000X-0.135000X-0.185000X0.135000X-0.185000X0.135000X0.185000X-0.135000X0.185000X0*%
%TD*%
%TA.AperFunction,SMDPad,CuDef*%
%ADD13RoundRect,0.135000X0.185000X-0.135000X0.185000X0.135000X-0.185000X0.135000X-0.185000X-0.135000X0*%
%TD*%
%TA.AperFunction,SMDPad,CuDef*%
%ADD14RoundRect,0.218750X-0.256250X0.218750X-0.256250X-0.218750X0.256250X-0.218750X0.256250X0.218750X0*%
%TD*%
%TA.AperFunction,SMDPad,CuDef*%
%ADD15C,0.200000*%
%TD*%
%TA.AperFunction,SMDPad,CuDef*%
%ADD16C,1.000000*%
%TD*%
%TA.AperFunction,SMDPad,CuDef*%
%ADD17RoundRect,0.218750X0.256250X-0.218750X0.256250X0.218750X-0.256250X0.218750X-0.256250X-0.218750X0*%
%TD*%
%TA.AperFunction,SMDPad,CuDef*%
%ADD18RoundRect,0.135000X0.135000X0.185000X-0.135000X0.185000X-0.135000X-0.185000X0.135000X-0.185000X0*%
%TD*%
%TA.AperFunction,ViaPad*%
%ADD19C,0.600000*%
%TD*%
%TA.AperFunction,Conductor*%
%ADD20C,0.150000*%
%TD*%
%TA.AperFunction,Conductor*%
%ADD21C,0.250000*%
%TD*%
%TA.AperFunction,Conductor*%
%ADD22C,0.000000*%
%TD*%
G04 APERTURE END LIST*
D10*
%TO.P,C2,1*%
%TO.N,+3V3*%
X164200000Y-87375000D03*
%TO.P,C2,2*%
%TO.N,GND*%
X164200000Y-85825000D03*
%TD*%
D11*
%TO.P,C1,1*%
%TO.N,+3V3*%
X165300000Y-87380000D03*
%TO.P,C1,2*%
%TO.N,GND*%
X165300000Y-86420000D03*
%TD*%
D12*
%TO.P,R2,1*%
%TO.N,/PA24*%
X166190000Y-89650000D03*
%TO.P,R2,2*%
%TO.N,Net-(D2-A)*%
X167210000Y-89650000D03*
%TD*%
D13*
%TO.P,R3,1*%
%TO.N,+3V3*%
X164840000Y-91320000D03*
%TO.P,R3,2*%
%TO.N,/I2C0_SCL*%
X164840000Y-90300000D03*
%TD*%
D14*
%TO.P,D2,1,K*%
%TO.N,GND*%
X168200000Y-89065000D03*
%TO.P,D2,2,A*%
%TO.N,Net-(D2-A)*%
X168200000Y-90640000D03*
%TD*%
D15*
%TO.P,U1,A1,PA24*%
%TO.N,/PA24*%
X166800000Y-88600000D03*
%TO.P,U1,A2,PA0*%
%TO.N,/I2C0_SDA*%
X166450000Y-88600000D03*
%TO.P,U1,B1,PA27*%
%TO.N,/PA27*%
X166800000Y-88250000D03*
%TO.P,U1,B2,PA1/~{RST}*%
%TO.N,/I2C0_SCL*%
X166450000Y-88250000D03*
%TO.P,U1,C1,PA20*%
%TO.N,/SWCLK*%
X166800000Y-87900000D03*
%TO.P,U1,C2,VDD*%
%TO.N,+3V3*%
X166450000Y-87900000D03*
%TO.P,U1,D1,PA19*%
%TO.N,/SWDIO*%
X166800000Y-87550000D03*
%TO.P,U1,D2,VSS*%
%TO.N,GND*%
X166450000Y-87550000D03*
%TD*%
D16*
%TO.P,TP2,1,1*%
%TO.N,/SWDIO*%
X165250000Y-84800000D03*
%TD*%
D17*
%TO.P,D1,1,K*%
%TO.N,GND*%
X168200000Y-86887500D03*
%TO.P,D1,2,A*%
%TO.N,Net-(D1-A)*%
X168200000Y-85312500D03*
%TD*%
D16*
%TO.P,TP1,1,1*%
%TO.N,/SWCLK*%
X166900000Y-84800000D03*
%TD*%
D18*
%TO.P,R5,1*%
%TO.N,Net-(D1-A)*%
X167170000Y-91300000D03*
%TO.P,R5,2*%
%TO.N,+3V3*%
X166150000Y-91300000D03*
%TD*%
D13*
%TO.P,R4,1*%
%TO.N,+3V3*%
X164000000Y-91320000D03*
%TO.P,R4,2*%
%TO.N,/I2C0_SDA*%
X164000000Y-90300000D03*
%TD*%
D19*
%TO.N,+3V3*%
X163955395Y-84925000D03*
%TO.N,GND*%
X168180000Y-87980000D03*
X166025000Y-86450000D03*
%TO.N,Net-(D1-A)*%
X167391087Y-86249905D03*
X166350000Y-90450000D03*
%TO.N,/I2C0_SDA*%
X165450000Y-88500000D03*
X165609999Y-90311403D03*
%TO.N,/I2C0_SCL*%
X165340198Y-89241922D03*
%TD*%
D20*
%TO.N,+3V3*%
X166450000Y-87900000D02*
X166016727Y-87900000D01*
D21*
X163405000Y-90765000D02*
X163405000Y-88170000D01*
X163450000Y-85350000D02*
X163450000Y-86625000D01*
D20*
X165395000Y-87375000D02*
X165400000Y-87380000D01*
D21*
X163875000Y-84925000D02*
X163450000Y-85350000D01*
D20*
X166150000Y-91300000D02*
X166130000Y-91320000D01*
X166016727Y-87900000D02*
X165496727Y-87380000D01*
X165496727Y-87380000D02*
X165400000Y-87380000D01*
D21*
X163405000Y-88170000D02*
X164200000Y-87375000D01*
X164200000Y-87375000D02*
X165395000Y-87375000D01*
X163450000Y-86625000D02*
X164200000Y-87375000D01*
X163955395Y-84925000D02*
X163875000Y-84925000D01*
X163960000Y-91320000D02*
X163405000Y-90765000D01*
X166130000Y-91320000D02*
X163960000Y-91320000D01*
D20*
%TO.N,GND*%
X166450000Y-87550000D02*
X166450000Y-87250000D01*
X166450000Y-87250000D02*
X166150000Y-86950000D01*
X166150000Y-86950000D02*
X166150000Y-86575000D01*
X165995000Y-86420000D02*
X165300000Y-86420000D01*
X165300000Y-86420000D02*
X164705000Y-85825000D01*
X168200000Y-88000000D02*
X168200000Y-87137500D01*
X168200000Y-88000000D02*
X168200000Y-89065000D01*
X166150000Y-86575000D02*
X165995000Y-86420000D01*
X164705000Y-85825000D02*
X164200000Y-85825000D01*
%TO.N,Net-(D1-A)*%
X166350000Y-90450000D02*
X166360000Y-90450000D01*
X167291182Y-86150000D02*
X167391087Y-86249905D01*
X168200000Y-85500000D02*
X167500000Y-86200000D01*
X166360000Y-90450000D02*
X167310000Y-91400000D01*
X167500000Y-86200000D02*
X167450000Y-86150000D01*
X168200000Y-85312500D02*
X168200000Y-85500000D01*
X167450000Y-86150000D02*
X167291182Y-86150000D01*
%TO.N,Net-(D2-A)*%
X167540000Y-90640000D02*
X168200000Y-90640000D01*
X167210000Y-90310000D02*
X167540000Y-90640000D01*
X167210000Y-89650000D02*
X167210000Y-90310000D01*
%TO.N,/PA24*%
X166800000Y-88600000D02*
X166800000Y-88741421D01*
X166200000Y-89640000D02*
X166190000Y-89650000D01*
X166800000Y-88741421D02*
X166200000Y-89341421D01*
X166200000Y-89341421D02*
X166200000Y-89640000D01*
D22*
%TO.N,/I2C0_SDA*%
X165500000Y-88400000D02*
X165350000Y-88550000D01*
D20*
X166450000Y-88600000D02*
X165550000Y-88600000D01*
X165609999Y-90362859D02*
X165177858Y-90795000D01*
X165177858Y-90795000D02*
X164495000Y-90795000D01*
X165550000Y-88600000D02*
X165450000Y-88500000D01*
X164495000Y-90795000D02*
X164150000Y-90450000D01*
X164150000Y-90450000D02*
X163900000Y-90450000D01*
X165609999Y-90311403D02*
X165609999Y-90362859D01*
%TO.N,/SWCLK*%
X166941421Y-87900000D02*
X167150000Y-87691421D01*
X167150000Y-86751281D02*
X166850000Y-86451281D01*
X166800000Y-87900000D02*
X166941421Y-87900000D01*
X166850000Y-86451281D02*
X166850000Y-84850000D01*
X166850000Y-84850000D02*
X166900000Y-84800000D01*
X167150000Y-87691421D02*
X167150000Y-86751281D01*
%TO.N,/I2C0_SCL*%
X164925000Y-88225000D02*
X164925000Y-88775000D01*
X166450000Y-88250000D02*
X165942463Y-88250000D01*
X165667463Y-87975000D02*
X165175000Y-87975000D01*
X165340198Y-89209802D02*
X165340198Y-89241922D01*
X165175000Y-87975000D02*
X164925000Y-88225000D01*
X165942463Y-88250000D02*
X165667463Y-87975000D01*
X164840000Y-90440000D02*
X164840000Y-89742120D01*
X164840000Y-89742120D02*
X165340198Y-89241922D01*
X164925000Y-88775000D02*
X165350000Y-89200000D01*
X165350000Y-89200000D02*
X165340198Y-89209802D01*
%TO.N,/SWDIO*%
X166550000Y-85887142D02*
X166550000Y-86707793D01*
X165462858Y-84800000D02*
X166550000Y-85887142D01*
X166550000Y-86707793D02*
X166800000Y-86957793D01*
X165250000Y-84800000D02*
X165462858Y-84800000D01*
X166800000Y-86957793D02*
X166800000Y-87550000D01*
%TD*%
%TA.AperFunction,Conductor*%
%TO.N,GND*%
G36*
X168771651Y-85864216D02*
G01*
X168798524Y-85919184D01*
X168799500Y-85933053D01*
X168799500Y-86212117D01*
X168780593Y-86270308D01*
X168731093Y-86306272D01*
X168669907Y-86306272D01*
X168655555Y-86300327D01*
X168587264Y-86265531D01*
X168489209Y-86250000D01*
X168300001Y-86250000D01*
X168300000Y-86250001D01*
X168300000Y-87524998D01*
X168300001Y-87524999D01*
X168489209Y-87524999D01*
X168587264Y-87509468D01*
X168587266Y-87509467D01*
X168655555Y-87474673D01*
X168715987Y-87465101D01*
X168770503Y-87492878D01*
X168798281Y-87547395D01*
X168799500Y-87562882D01*
X168799500Y-88389617D01*
X168780593Y-88447808D01*
X168731093Y-88483772D01*
X168669907Y-88483772D01*
X168655555Y-88477827D01*
X168587264Y-88443031D01*
X168489209Y-88427500D01*
X168300001Y-88427500D01*
X168300000Y-88427501D01*
X168300000Y-89702498D01*
X168300001Y-89702499D01*
X168489209Y-89702499D01*
X168587264Y-89686968D01*
X168587266Y-89686967D01*
X168655555Y-89652173D01*
X168715987Y-89642601D01*
X168770503Y-89670378D01*
X168798281Y-89724895D01*
X168799500Y-89740382D01*
X168799500Y-90019446D01*
X168780593Y-90077637D01*
X168731093Y-90113601D01*
X168669907Y-90113601D01*
X168657020Y-90108387D01*
X168563070Y-90062458D01*
X168563068Y-90062457D01*
X168545124Y-90059842D01*
X168491295Y-90052000D01*
X168491292Y-90052000D01*
X168199000Y-90052000D01*
X168140809Y-90033093D01*
X168104845Y-89983593D01*
X168100000Y-89953000D01*
X168100000Y-86100001D01*
X168100000Y-86100000D01*
X168099999Y-86100000D01*
X168079456Y-86079457D01*
X168051679Y-86024940D01*
X168061250Y-85964508D01*
X168079456Y-85939449D01*
X168089410Y-85929495D01*
X168143927Y-85901718D01*
X168159414Y-85900499D01*
X168491289Y-85900499D01*
X168491294Y-85900499D01*
X168563067Y-85890043D01*
X168657021Y-85844111D01*
X168717601Y-85835541D01*
X168771651Y-85864216D01*
G37*
%TD.AperFunction*%
%TA.AperFunction,Conductor*%
G36*
X165712899Y-85368957D02*
G01*
X165713751Y-85369798D01*
X166274949Y-85930996D01*
X166302726Y-85985513D01*
X166293155Y-86045945D01*
X166249890Y-86089210D01*
X166204945Y-86100000D01*
X165811839Y-86100000D01*
X165753648Y-86081093D01*
X165741835Y-86071004D01*
X165668021Y-85997190D01*
X165559361Y-85946521D01*
X165559354Y-85946519D01*
X165509839Y-85940000D01*
X165400001Y-85940000D01*
X165400000Y-85940001D01*
X165400000Y-86001000D01*
X165381093Y-86059191D01*
X165331593Y-86095155D01*
X165301000Y-86100000D01*
X165299000Y-86100000D01*
X165240809Y-86081093D01*
X165204845Y-86031593D01*
X165200000Y-86001000D01*
X165200000Y-85940001D01*
X165199999Y-85940000D01*
X165090161Y-85940000D01*
X165040645Y-85946519D01*
X165040643Y-85946519D01*
X165005175Y-85963058D01*
X164944446Y-85970513D01*
X164893334Y-85943336D01*
X164874998Y-85925000D01*
X164300001Y-85925000D01*
X164300000Y-85925001D01*
X164300000Y-86474998D01*
X164300001Y-86474999D01*
X164483453Y-86474999D01*
X164582965Y-86459239D01*
X164582969Y-86459238D01*
X164646054Y-86427094D01*
X164706486Y-86417522D01*
X164761003Y-86445299D01*
X164788781Y-86499815D01*
X164790000Y-86515303D01*
X164790000Y-86599838D01*
X164796519Y-86649354D01*
X164796519Y-86649355D01*
X164835449Y-86732841D01*
X164842905Y-86793570D01*
X164813242Y-86847084D01*
X164757789Y-86872942D01*
X164697728Y-86861267D01*
X164675724Y-86844687D01*
X164671211Y-86840174D01*
X164558625Y-86785134D01*
X164558626Y-86785134D01*
X164530648Y-86781058D01*
X164485636Y-86774500D01*
X164485633Y-86774500D01*
X164030122Y-86774500D01*
X163971931Y-86755593D01*
X163960118Y-86745503D01*
X163858618Y-86644002D01*
X163830841Y-86589486D01*
X163840413Y-86529054D01*
X163883677Y-86485789D01*
X163928622Y-86474999D01*
X164100000Y-86474999D01*
X164100000Y-85824000D01*
X164118907Y-85765809D01*
X164168407Y-85729845D01*
X164199000Y-85725000D01*
X164874998Y-85725000D01*
X164874999Y-85724999D01*
X164874999Y-85566546D01*
X164866345Y-85511905D01*
X164875917Y-85451473D01*
X164919182Y-85408209D01*
X164979614Y-85398638D01*
X165010133Y-85408759D01*
X165017633Y-85412695D01*
X165017635Y-85412696D01*
X165171015Y-85450500D01*
X165171018Y-85450500D01*
X165328982Y-85450500D01*
X165328985Y-85450500D01*
X165482365Y-85412696D01*
X165597739Y-85352141D01*
X165658051Y-85341841D01*
X165712899Y-85368957D01*
G37*
%TD.AperFunction*%
%TD*%
M02*
